<svg width="35" height="37" viewBox="0 0 35 37" fill="none" xmlns="http://www.w3.org/2000/svg">
<path d="M4 6.5L7 4.5" stroke="#163739"/>
<path d="M14 7.5L17 5.5" stroke="#163739"/>
<path d="M24 7.5L27 5.5" stroke="#163739"/>
<path d="M11.7082 6.89777L8.99991 4.51763" stroke="#163739"/>
<path d="M21.7082 7.89777L18.9999 5.51763" stroke="#163739"/>
<path d="M31.7082 7.89777L28.9999 5.51763" stroke="#163739"/>
<circle cx="8" cy="3" r="3" fill="#163739"/>
<circle cx="18" cy="3" r="3" fill="#163739"/>
<circle cx="28" cy="3" r="3" fill="#163739"/>
<circle cx="3" cy="9" r="3" fill="#163739"/>
<circle cx="23" cy="9" r="3" fill="#163739"/>
<circle cx="13" cy="9" r="3" fill="#163739"/>
<circle cx="32" cy="9" r="3" fill="#163739"/>
<path d="M4 18.5L7 16.5" stroke="#163739"/>
<path d="M14 19.5L17 17.5" stroke="#163739"/>
<path d="M24 19.5L27 17.5" stroke="#163739"/>
<path d="M11.7082 18.8978L8.99991 16.5176" stroke="#163739"/>
<path d="M21.7082 19.8978L18.9999 17.5176" stroke="#163739"/>
<path d="M31.7082 19.8978L28.9999 17.5176" stroke="#163739"/>
<circle cx="8" cy="15" r="3" fill="#163739"/>
<circle cx="18" cy="15" r="3" fill="#163739"/>
<circle cx="28" cy="15" r="3" fill="#163739"/>
<circle cx="3" cy="21" r="3" fill="#163739"/>
<circle cx="23" cy="21" r="3" fill="#163739"/>
<circle cx="13" cy="21" r="3" fill="#163739"/>
<circle cx="32" cy="21" r="3" fill="#163739"/>
<path d="M4 31.5L7 29.5" stroke="#163739"/>
<path d="M14 32.5L17 30.5" stroke="#163739"/>
<path d="M24 32.5L27 30.5" stroke="#163739"/>
<path d="M11.7082 31.8978L8.99991 29.5176" stroke="#163739"/>
<path d="M21.7082 32.8978L18.9999 30.5176" stroke="#163739"/>
<path d="M31.7082 32.8978L28.9999 30.5176" stroke="#163739"/>
<circle cx="8" cy="28" r="3" fill="#163739"/>
<circle cx="18" cy="28" r="3" fill="#163739"/>
<circle cx="28" cy="28" r="3" fill="#163739"/>
<circle cx="3" cy="34" r="3" fill="#163739"/>
<circle cx="23" cy="34" r="3" fill="#163739"/>
<circle cx="13" cy="34" r="3" fill="#163739"/>
<circle cx="32" cy="34" r="3" fill="#163739"/>
</svg>
