<svg version="1.1" id="Layer_1" xmlns="http://www.w3.org/2000/svg" xmlns:xlink="http://www.w3.org/1999/xlink" x="0px" y="0px"
	 width="100%" viewBox="0 0 307 200" enable-background="new 0 0 307 200" xml:space="preserve">
<path fill="#FFFFFF" opacity="1.000000" stroke="none" 
	d="
M226.000000,1.000003 
	C253.320389,1.000000 280.640778,1.000000 307.980591,1.000000 
	C307.980591,67.622139 307.980591,134.244293 307.980591,200.933228 
	C205.759689,200.933228 103.519325,200.933228 1.139481,200.933228 
	C1.139481,134.333511 1.139481,67.666801 1.132779,1.000048 
	C45.771614,1.000000 90.417145,1.000000 135.341339,1.272686 
	C129.389435,6.497936 123.009201,11.274945 116.956161,16.435720 
	C98.204689,32.423092 81.814583,50.359707 71.468552,73.103607 
	C66.013779,85.094948 62.400532,97.508926 63.401527,110.941147 
	C64.142883,109.859596 64.603432,108.685371 64.992867,107.488029 
	C74.813942,77.292786 95.464958,56.799389 123.786659,44.107277 
	C146.490128,33.932922 169.912476,25.372604 192.906036,15.831466 
	C204.067062,11.200212 214.976608,5.962930 226.000000,1.000003 
M95.852257,99.338608 
	C77.212212,107.557533 59.204102,116.884346 43.323574,129.835281 
	C29.200415,141.353027 17.151724,154.557037 10.822049,172.042160 
	C9.222125,176.461807 8.502911,181.200272 7.378990,185.792221 
	C7.862054,185.997620 8.345119,186.203033 8.828182,186.408432 
	C18.042934,162.863541 36.483479,149.912323 59.304234,142.156357 
	C70.953896,138.197052 82.731949,134.613022 94.470131,130.917099 
	C129.211395,119.978363 162.094223,105.448891 189.711761,80.988922 
	C203.301102,68.953278 214.199081,55.039467 217.456863,36.535332 
	C218.747589,29.203968 218.293716,21.939409 215.431030,15.185806 
	C211.870407,21.236147 208.984711,27.283142 205.074158,32.572399 
	C192.843933,49.114384 176.616379,61.274303 158.616318,70.509621 
	C138.376892,80.893890 117.282196,89.611259 95.852257,99.338608 
z"/>
<path fill="#FFD6C6" opacity="1.000000" stroke="none" 
	d="
M225.531342,1.000003 
	C214.976608,5.962930 204.067062,11.200212 192.906036,15.831466 
	C169.912476,25.372604 146.490128,33.932922 123.786659,44.107277 
	C95.464958,56.799389 74.813942,77.292786 64.992867,107.488029 
	C64.603432,108.685371 64.142883,109.859596 63.401527,110.941147 
	C62.400532,97.508926 66.013779,85.094948 71.468552,73.103607 
	C81.814583,50.359707 98.204689,32.423092 116.956161,16.435720 
	C123.009201,11.274945 129.389435,6.497936 135.809998,1.272686 
	C165.687561,1.000000 195.375122,1.000000 225.531342,1.000003 
z"/>
<path fill="#5473FF" opacity="1.000000" stroke="none" 
	d="
M96.205910,99.196190 
	C117.282196,89.611259 138.376892,80.893890 158.616318,70.509621 
	C176.616379,61.274303 192.843933,49.114384 205.074158,32.572399 
	C208.984711,27.283142 211.870407,21.236147 215.431030,15.185806 
	C218.293716,21.939409 218.747589,29.203968 217.456863,36.535332 
	C214.199081,55.039467 203.301102,68.953278 189.711761,80.988922 
	C162.094223,105.448891 129.211395,119.978363 94.470131,130.917099 
	C82.731949,134.613022 70.953896,138.197052 59.304234,142.156357 
	C36.483479,149.912323 18.042934,162.863541 8.828182,186.408432 
	C8.345119,186.203033 7.862054,185.997620 7.378990,185.792221 
	C8.502911,181.200272 9.222125,176.461807 10.822049,172.042160 
	C17.151724,154.557037 29.200415,141.353027 43.323574,129.835281 
	C59.204102,116.884346 77.212212,107.557533 96.205910,99.196190 
z"/>
</svg>