<?xml version="1.0" encoding="UTF-8"?>
<svg version="1.1" xmlns="http://www.w3.org/2000/svg" width="500" height="500">
<path d="M0 0 C0.86882812 0.60457031 1.73765625 1.20914063 2.6328125 1.83203125 C21.14080459 15.61149245 31.26606858 35.59641146 35 58 C25.43 58 15.86 58 6 58 C5.175 55.586875 4.35 53.17375 3.5 50.6875 C-1.72946581 36.3573676 -11.16162013 24.87535166 -25.0625 18.1875 C-44.12254538 9.57824065 -63.03560439 9.2492157 -82.6875 16.125 C-90.83800498 19.48467266 -99.18130072 24.35074162 -104.75 31.28515625 C-105.4925 32.18105469 -106.235 33.07695312 -107 34 C-107.66 34 -108.32 34 -109 34 C-109.27199219 34.74121094 -109.54398437 35.48242188 -109.82421875 36.24609375 C-110.932801 38.84260698 -112.15544848 40.79334501 -113.8125 43.0625 C-119.79966747 51.90486168 -122.64726296 61.70091466 -125.203125 71.9453125 C-126 75 -126 75 -127 77 C-131.29165262 77.02891949 -135.58328036 77.04677118 -139.875 77.0625 C-141.09832031 77.07087891 -142.32164062 77.07925781 -143.58203125 77.08789062 C-144.74863281 77.09111328 -145.91523438 77.09433594 -147.1171875 77.09765625 C-148.73536377 77.10551147 -148.73536377 77.10551147 -150.38623047 77.11352539 C-153 77 -153 77 -155 76 C-151.82107275 53.9148212 -145.32228756 35.96574049 -132 18 C-131.34 17.01 -130.68 16.02 -130 15 C-129.34 15 -128.68 15 -128 15 C-127.76023437 14.42765625 -127.52046875 13.8553125 -127.2734375 13.265625 C-119.73726603 -0.14228744 -101.10077646 -8.4559913 -87 -13 C-82.05664831 -14.33509062 -77.05833039 -15.21435729 -72 -16 C-71.06414062 -16.18304688 -70.12828125 -16.36609375 -69.1640625 -16.5546875 C-45.3157501 -19.91111665 -19.60067831 -13.94357197 0 0 Z " fill="#0480C9" transform="translate(428,149)"/>
<path d="M0 0 C1.16781006 0.00523682 2.33562012 0.01047363 3.53881836 0.01586914 C4.79887695 0.0190918 6.05893555 0.02231445 7.35717773 0.02563477 C8.6976732 0.03399136 10.03816799 0.04245632 11.37866211 0.05102539 C12.72306153 0.05603879 14.06746271 0.06060197 15.41186523 0.06469727 C18.71334151 0.07653051 22.01473014 0.09301568 25.31616211 0.11352539 C25.51773926 0.67338135 25.71931641 1.2332373 25.92700195 1.81005859 C26.84423691 4.35023569 27.76762577 6.88813287 28.69116211 9.42602539 C29.00827148 10.30709961 29.32538086 11.18817383 29.65209961 12.09594727 C29.96147461 12.94350586 30.27084961 13.79106445 30.58959961 14.66430664 C30.8723877 15.44459229 31.15517578 16.22487793 31.4465332 17.02880859 C32.33868454 19.35488846 32.33868454 19.35488846 34.31616211 22.11352539 C34.31616211 23.10352539 34.31616211 24.09352539 34.31616211 25.11352539 C34.97616211 25.11352539 35.63616211 25.11352539 36.31616211 25.11352539 C37.35245271 26.70270573 38.31854623 28.33778294 39.25366211 29.98852539 C48.19564264 44.40329484 62.13720624 52.61134545 78.26245117 56.66333008 C95.58943525 60.46158955 115.48646848 57.38153705 130.60913086 48.06665039 C132.31616211 47.11352539 132.31616211 47.11352539 134.31616211 47.11352539 C134.31616211 46.45352539 134.31616211 45.79352539 134.31616211 45.11352539 C135.96069336 43.52758789 135.96069336 43.52758789 138.12866211 41.73852539 C140.37867067 39.87786257 142.21966496 38.24479836 143.95288086 35.88696289 C144.40276367 35.30172852 144.85264648 34.71649414 145.31616211 34.11352539 C145.97616211 34.11352539 146.63616211 34.11352539 147.31616211 34.11352539 C147.68741211 32.87602539 147.68741211 32.87602539 148.06616211 31.61352539 C149.00702127 28.97911973 149.97075138 26.75379341 151.25366211 24.30102539 C153.76876938 19.43315902 153.76876938 19.43315902 156.31616211 11.11352539 C165.88616211 11.11352539 175.45616211 11.11352539 185.31616211 11.11352539 C182.67868156 29.57588926 175.88419862 44.3220517 163.31616211 58.11352539 C162.6806543 58.83024414 162.04514648 59.54696289 161.39038086 60.28540039 C146.85602694 75.8127847 124.13754518 84.70023997 103.08959961 86.02758789 C77.65581205 86.81567708 53.38110969 82.78238712 33.31616211 66.11352539 C32.46538086 65.41356445 31.61459961 64.71360352 30.73803711 63.99243164 C11.81843025 47.71344475 0.96682127 25.39359011 -3.68383789 1.11352539 C-2.68383789 0.11352539 -2.68383789 0.11352539 0 0 Z " fill="#0480C9" transform="translate(277.683837890625,278.886474609375)"/>
<path d="M0 0 C23.91777799 -1.8493332 23.91777799 -1.8493332 30.33984375 2.00390625 C32.19306742 4.56142606 33.62629066 7.07835152 34.94482422 9.94433594 C37.14081687 14.22250765 40.15184231 18.02924704 42.9375 21.9375 C44.05909438 23.54501285 45.17285066 25.15803323 46.27734375 26.77734375 C46.75421631 27.47077881 47.23108887 28.16421387 47.72241211 28.87866211 C49.10627094 31.17645485 50.06805582 33.48876825 51 36 C51.66 36 52.32 36 53 36 C54.56802654 38.13570738 56.01281819 40.27072081 57.4375 42.5 C58.33742198 43.87963726 59.23850404 45.25851836 60.140625 46.63671875 C60.84348633 47.71445557 60.84348633 47.71445557 61.56054688 48.81396484 C63.88715024 52.34727668 66.2850344 55.83050873 68.6875 59.3125 C69.14672852 59.98039551 69.60595703 60.64829102 70.07910156 61.33642578 C73.28415711 65.98963188 76.54271001 70.60233936 79.85546875 75.1796875 C81 77 81 77 81 79 C81.66 79 82.32 79 83 79 C84.54296875 80.86328125 84.54296875 80.86328125 86.1875 83.3125 C87.01314453 84.51326172 87.01314453 84.51326172 87.85546875 85.73828125 C88.23316406 86.48464844 88.61085938 87.23101562 89 88 C88.505 89.485 88.505 89.485 88 91 C83.41667994 91.02901401 78.83338349 91.04680348 74.25 91.0625 C72.94804688 91.07087891 71.64609375 91.07925781 70.3046875 91.08789062 C69.05429688 91.09111328 67.80390625 91.09433594 66.515625 91.09765625 C64.78747559 91.10551147 64.78747559 91.10551147 63.02441406 91.11352539 C58.15980644 90.9309259 58.15980644 90.9309259 56 90 C54.2800293 88.02563477 54.2800293 88.02563477 52.57421875 85.44140625 C51.94193359 84.49716797 51.30964844 83.55292969 50.65820312 82.58007812 C50.00787109 81.58427734 49.35753906 80.58847656 48.6875 79.5625 C47.40033433 77.62590665 46.11257676 75.68970658 44.82421875 73.75390625 C44.1904834 72.79500488 43.55674805 71.83610352 42.90380859 70.84814453 C40.54177319 67.3144814 38.10740373 63.83588446 35.65161133 60.36694336 C33.72492118 57.60578135 31.86004538 54.80637982 30 52 C29.97494385 53.03930664 29.9498877 54.07861328 29.92407227 55.14941406 C29.82979074 59.01102703 29.72962092 62.87246883 29.62768555 66.73388672 C29.58441511 68.40409334 29.54273451 70.07434194 29.50268555 71.74462891 C29.44479149 74.14758955 29.3811526 76.55034041 29.31640625 78.953125 C29.29133751 80.0705307 29.29133751 80.0705307 29.26576233 81.21051025 C29.16938305 84.59509934 29.03929826 87.7600524 28 91 C23.89584811 91.02898097 19.79172247 91.0467922 15.6875 91.0625 C14.52025391 91.07087891 13.35300781 91.07925781 12.15039062 91.08789062 C11.03212891 91.09111328 9.91386719 91.09433594 8.76171875 91.09765625 C7.2142395 91.10551147 7.2142395 91.10551147 5.63549805 91.11352539 C3 91 3 91 0 90 C-0.90445939 81.09014024 -1.14681522 72.27208889 -1.1328125 63.3203125 C-1.13348882 61.93610619 -1.13446156 60.5519 -1.13571167 59.16769409 C-1.13717421 56.28512425 -1.13508174 53.40258569 -1.13037109 50.52001953 C-1.12468553 46.86724913 -1.12795469 43.21455243 -1.13394356 39.56178474 C-1.13759777 36.70807361 -1.13638838 33.85437927 -1.13381577 31.00066757 C-1.1328453 29.01249899 -1.13582681 27.0243297 -1.13894653 25.03616333 C-1.11763385 16.64175671 -0.7057471 8.36383247 0 0 Z " fill="#0C86CD" transform="translate(48,135)"/>
<path d="M0 0 C1.45617359 -0.03155393 2.91209352 -0.07922215 4.3671875 -0.14355469 C16.43490015 -0.66979105 16.43490015 -0.66979105 20.33618164 2.26538086 C22.37817057 4.91942642 24.00952148 7.09806296 24.00952148 10.51489258 C24.66952148 10.51489258 25.32952148 10.51489258 26.00952148 10.51489258 C27.29052734 12.10375977 27.29052734 12.10375977 28.72436523 14.31176758 C29.24579102 15.10583008 29.7672168 15.89989258 30.30444336 16.71801758 C30.84649414 17.55848633 31.38854492 18.39895508 31.94702148 19.26489258 C33.01768005 20.90614163 34.08926493 22.54678685 35.16186523 24.18676758 C35.63615967 24.91992188 36.1104541 25.65307617 36.59912109 26.40844727 C37.99608477 28.49482473 39.50299826 30.50619494 41.00952148 32.51489258 C41.33952148 21.95489258 41.66952148 11.39489258 42.00952148 0.51489258 C46.60889648 0.49426758 51.20827148 0.47364258 55.94702148 0.45239258 C57.39971436 0.44328857 58.85240723 0.43418457 60.34912109 0.42480469 C61.48357666 0.42230713 62.61803223 0.41980957 63.78686523 0.41723633 C65.53858032 0.4093811 65.53858032 0.4093811 67.32568359 0.40136719 C70.00952148 0.51489258 70.00952148 0.51489258 71.00952148 1.51489258 C71.10987964 4.03491709 71.1456986 6.52755458 71.13891602 9.0480957 C71.14154449 10.23096413 71.14154449 10.23096413 71.14422607 11.43772888 C71.14864507 14.05722218 71.14570644 16.67664854 71.14233398 19.29614258 C71.14300701 21.10835788 71.14397702 22.92057309 71.14523315 24.73278809 C71.14671019 28.53597877 71.14455539 32.33914602 71.13989258 36.14233398 C71.13419529 41.02867753 71.13747426 45.91496615 71.14346504 50.80130768 C71.1470705 54.54494647 71.14593214 58.28857213 71.14333725 62.0322113 C71.14266794 63.83442695 71.14349655 65.63664376 71.1458168 67.43885803 C71.14834308 69.95316749 71.14450311 72.46738675 71.13891602 74.98168945 C71.14094025 75.73393295 71.14296448 76.48617645 71.14505005 77.26121521 C71.12378408 82.40062998 71.12378408 82.40062998 70.00952148 83.51489258 C47.49631344 87.28632081 47.49631344 87.28632081 39.5246582 81.80688477 C35.4232611 77.38908 32.7171885 72.22024405 30.13500977 66.80932617 C28.74097299 63.96742647 27.02406239 61.48674442 25.13452148 58.95239258 C24.35141602 57.83864258 24.35141602 57.83864258 23.55249023 56.70239258 C23.04331055 55.98051758 22.53413086 55.25864258 22.00952148 54.51489258 C18.5006105 49.53550671 15.00290699 44.54846873 11.57202148 39.51489258 C11.07831055 38.79301758 10.58459961 38.07114258 10.07592773 37.32739258 C9.00952148 35.51489258 9.00952148 35.51489258 9.00952148 33.51489258 C8.34952148 33.51489258 7.68952148 33.51489258 7.00952148 33.51489258 C5.56420898 31.49536133 5.56420898 31.49536133 3.88452148 28.70239258 C1.3867984 24.65203083 -1.21181577 20.76969377 -4.05297852 16.95239258 C-7.7171408 11.9954167 -10.92870597 6.8613969 -13.99047852 1.51489258 C-11.29201249 -1.18357344 -3.85307155 0.06441239 0 0 Z " fill="#0482CB" transform="translate(156.990478515625,278.485107421875)"/>
<path d="M0 0 C3.96930989 -0.02465881 7.93859034 -0.04284023 11.90795898 -0.05493164 C13.25920386 -0.05997057 14.61044326 -0.06680177 15.96166992 -0.07543945 C17.90020434 -0.08752419 19.838778 -0.09269828 21.77734375 -0.09765625 C23.52905884 -0.10551147 23.52905884 -0.10551147 25.31616211 -0.11352539 C28 0 28 0 29 1 C29.09517803 3.76938966 29.12554265 6.51377159 29.11352539 9.28344727 C29.11367142 10.15166107 29.11381744 11.01987488 29.1139679 11.91439819 C29.11326846 14.79842586 29.10547463 17.6823898 29.09765625 20.56640625 C29.09579218 22.56037867 29.09436823 24.55435155 29.09336853 26.54832458 C29.08954248 31.80745702 29.07971145 37.06656203 29.06866455 42.32568359 C29.0584523 47.68782175 29.05387131 53.04996431 29.04882812 58.41210938 C29.03808926 68.94141833 29.0210118 79.47070689 29 90 C25.84221554 91.05259482 23.58805121 91.12916606 20.2734375 91.1328125 C19.1596875 91.13410156 18.0459375 91.13539063 16.8984375 91.13671875 C15.73570312 91.13285156 14.57296875 91.12898438 13.375 91.125 C12.20453125 91.12886719 11.0340625 91.13273437 9.828125 91.13671875 C8.71695313 91.13542969 7.60578125 91.13414062 6.4609375 91.1328125 C5.43790527 91.13168457 4.41487305 91.13055664 3.36083984 91.12939453 C1 91 1 91 0 90 C-0.09519368 87.2001028 -0.12553944 84.42493826 -0.11352539 81.62475586 C-0.11367142 80.74678848 -0.11381744 79.86882111 -0.1139679 78.96424866 C-0.11326844 76.04775565 -0.10547455 73.13132567 -0.09765625 70.21484375 C-0.09579218 68.19845108 -0.09436823 66.18205796 -0.09336853 64.16566467 C-0.08954244 58.84734862 -0.07971139 53.5290597 -0.06866455 48.21075439 C-0.05845238 42.78829312 -0.05387133 37.36582748 -0.04882812 31.94335938 C-0.0380892 21.29556097 -0.02101169 10.64778274 0 0 Z " fill="#108ACE" transform="translate(199,135)"/>
<path d="M0 0 C3.96930989 -0.02465881 7.93859034 -0.04284023 11.90795898 -0.05493164 C13.25920386 -0.05997057 14.61044326 -0.06680177 15.96166992 -0.07543945 C17.90020434 -0.08752419 19.838778 -0.09269828 21.77734375 -0.09765625 C23.52905884 -0.10551147 23.52905884 -0.10551147 25.31616211 -0.11352539 C28 0 28 0 29 1 C29.09208153 4.04220203 29.11519397 7.05928261 29.09375 10.1015625 C29.09016479 11.07026276 29.08657959 12.03896301 29.08288574 13.03701782 C29.01388614 26.13403725 28.77071137 39.22944287 28.53643799 52.32434082 C28.47471067 55.79823418 28.41517863 59.27216523 28.35546875 62.74609375 C28.23927348 69.49743953 28.11956744 76.24870978 28 83 C18.76 83 9.52 83 0 83 C-0.97392387 68.72351281 -1.1546511 54.51815206 -1.13037109 40.21069336 C-1.12496542 36.41320893 -1.1303713 32.61584044 -1.13671875 28.81835938 C-1.13605863 26.37760391 -1.13477884 23.93684851 -1.1328125 21.49609375 C-1.13483673 20.37408066 -1.13686096 19.25206757 -1.13894653 18.09605408 C-1.1208015 11.98056882 -0.80173933 6.06399961 0 0 Z " fill="#108AD0" transform="translate(48,279)"/>
<path d="M0 0 C4.69015173 0.83212369 5.14706323 1.78963125 7.8125 5.5625 C10.875 10.2875 10.875 10.2875 10.875 12.6875 C11.535 12.6875 12.195 12.6875 12.875 12.6875 C13.865 14.1725 13.865 14.1725 14.875 15.6875 C15.205 10.7375 15.535 5.7875 15.875 0.6875 C18.515 0.6875 21.155 0.6875 23.875 0.6875 C23.875 11.5775 23.875 22.4675 23.875 33.6875 C16.875 33.6875 16.875 33.6875 14.9375 31.8125 C13.875 29.6875 13.875 29.6875 13.875 27.6875 C13.215 27.6875 12.555 27.6875 11.875 27.6875 C10.3671875 25.71875 10.3671875 25.71875 8.75 23.1875 C8.21117187 22.3521875 7.67234375 21.516875 7.1171875 20.65625 C6.70726562 20.0065625 6.29734375 19.356875 5.875 18.6875 C5.81441406 19.68652344 5.75382812 20.68554688 5.69140625 21.71484375 C5.60761719 23.00519531 5.52382813 24.29554688 5.4375 25.625 C5.35628906 26.91277344 5.27507813 28.20054687 5.19140625 29.52734375 C4.875 32.6875 4.875 32.6875 3.875 33.6875 C0.375 33.8125 0.375 33.8125 -3.125 33.6875 C-5.03349948 31.77900052 -4.25559633 28.37271226 -4.2578125 25.84375 C-4.25876923 25.15945923 -4.25972595 24.47516846 -4.26071167 23.7701416 C-4.2613933 22.32088123 -4.25954023 20.87161782 -4.25537109 19.42236328 C-4.25002252 17.19687072 -4.2553166 14.97157999 -4.26171875 12.74609375 C-4.26105797 11.34114539 -4.2597768 9.93619715 -4.2578125 8.53125 C-4.25668457 7.24412109 -4.25555664 5.95699219 -4.25439453 4.63085938 C-4.0757194 0.56650573 -4.00385162 0.88084736 0 0 Z " fill="#2590D1" transform="translate(53.125,235.3125)"/>
<path d="M0 0 C3.08325358 -0.0582253 6.16636505 -0.09367134 9.25 -0.125 C10.55904297 -0.15013672 10.55904297 -0.15013672 11.89453125 -0.17578125 C12.73886719 -0.18222656 13.58320313 -0.18867188 14.453125 -0.1953125 C15.22817383 -0.20578613 16.00322266 -0.21625977 16.80175781 -0.22705078 C19.32982966 0.03406726 20.86591858 0.62711597 23 2 C25.6241191 6.28606119 26.33632464 8.80823223 25.3125 13.75 C24.54107096 16.7517511 23.7682497 18.34762545 22 21 C22.3609375 21.69867188 22.721875 22.39734375 23.09375 23.1171875 C23.5578125 24.02726562 24.021875 24.93734375 24.5 25.875 C24.9640625 26.77992188 25.428125 27.68484375 25.90625 28.6171875 C27 31 27 31 27 33 C24.03 33 21.06 33 18 33 C17.16151196 31.54462432 16.32936066 30.08559627 15.5 28.625 C15.0359375 27.81289063 14.571875 27.00078125 14.09375 26.1640625 C13 24 13 24 13 22 C11.68 22 10.36 22 9 22 C9.01160156 22.71027344 9.02320313 23.42054688 9.03515625 24.15234375 C9.04869141 25.53099609 9.04869141 25.53099609 9.0625 26.9375 C9.07410156 27.85402344 9.08570313 28.77054687 9.09765625 29.71484375 C9 32 9 32 8 33 C4.5 33.125 4.5 33.125 1 33 C0 32 0 32 -0.11352539 28.94897461 C-0.11336634 27.60008729 -0.10767612 26.25119386 -0.09765625 24.90234375 C-0.0962413 24.19348526 -0.09482635 23.48462677 -0.09336853 22.75428772 C-0.08775443 20.48198288 -0.07519963 18.20977525 -0.0625 15.9375 C-0.05748681 14.40039204 -0.05292359 12.86328255 -0.04882812 11.32617188 C-0.03778042 7.55074358 -0.02050641 3.77538829 0 0 Z M9 7 C9 9.64 9 12.28 9 15 C12.465 14.505 12.465 14.505 16 14 C16.67958603 11.60280568 16.67958603 11.60280568 17 9 C15.10244856 6.65026182 15.10244856 6.65026182 11.875 6.875 C10.92625 6.91625 9.9775 6.9575 9 7 Z " fill="#2493CF" transform="translate(380,236)"/>
<path d="M0 0 C3.63 0 7.26 0 11 0 C12.48976005 4.1838064 13.96489906 8.37262632 15.4375 12.5625 C16.06881836 14.33463867 16.06881836 14.33463867 16.71289062 16.14257812 C17.11572266 17.29306641 17.51855469 18.44355469 17.93359375 19.62890625 C18.4913147 21.2078064 18.4913147 21.2078064 19.06030273 22.81860352 C20.06066429 26.20538229 20.58125084 29.4975589 21 33 C18.36 33 15.72 33 13 33 C11.5393715 30.35261084 11 29.10551666 11 26 C7.37 26 3.74 26 0 26 C-0.33 27.65 -0.66 29.3 -1 31 C-1.33 31.66 -1.66 32.32 -2 33 C-4.64 33 -7.28 33 -10 33 C-9.43763872 28.29637913 -8.5103547 24.0926943 -6.93359375 19.62890625 C-6.53076172 18.47841797 -6.12792969 17.32792969 -5.71289062 16.14257812 C-5.29201172 14.96115234 -4.87113281 13.77972656 -4.4375 12.5625 C-4.01275391 11.35400391 -3.58800781 10.14550781 -3.15039062 8.90039062 C-2.1060029 5.93151317 -1.05572123 2.96486218 0 0 Z M5 11 C4.34 13.64 3.68 16.28 3 19 C4.65 19 6.3 19 8 19 C7.34 16.36 6.68 13.72 6 11 C5.67 11 5.34 11 5 11 Z " fill="#1588CA" transform="translate(336,236)"/>
<path d="M0 0 C3.12771462 -0.4906219 5.89647475 -0.70581845 9 0 C11.28928569 2.38336593 12.66469366 4.99388321 14 8 C14.32871094 7.4225 14.65742188 6.845 14.99609375 6.25 C18.83495146 0.25763675 18.83495146 0.25763675 22.40234375 -0.53125 C24.64930383 -0.5028524 26.78224595 -0.35484065 29 0 C27.30352883 4.65697968 24.82452334 8.42271803 22.046875 12.5 C20.7233003 14.95745815 20.7233003 14.95745815 21.6328125 17.4921875 C23.53839936 20.98757826 25.62383035 24.33607745 27.7578125 27.6953125 C29 30 29 30 29 33 C25.84005495 33.56879011 23.13414169 33.7797133 20 33 C17.40155657 30.30706772 15.6833009 27.32699471 14 24 C13.48953125 24.97453125 13.48953125 24.97453125 12.96875 25.96875 C9.05706843 32.71015865 9.05706843 32.71015865 5.8203125 33.59765625 C3.625 33.5625 3.625 33.5625 0 33 C0.58265272 28.57676318 2.26766211 25.4844136 4.5625 21.6875 C5.20316406 20.61886719 5.84382812 19.55023438 6.50390625 18.44921875 C6.99761719 17.64097656 7.49132812 16.83273438 8 16 C7.34 14.88625 6.68 13.7725 6 12.625 C4 9.25 4 9.25 4 7 C3.34 7 2.68 7 2 7 C0.5393715 4.35261084 0 3.10551666 0 0 Z " fill="#0F88CA" transform="translate(149,236)"/>
<path d="M0 0 C0.91644287 0.00523682 1.83288574 0.01047363 2.77709961 0.01586914 C3.76645508 0.0190918 4.75581055 0.02231445 5.77514648 0.02563477 C6.81606445 0.03401367 7.85698242 0.04239258 8.92944336 0.05102539 C10.49662109 0.05779297 10.49662109 0.05779297 12.09545898 0.06469727 C14.68600996 0.07652627 17.27644895 0.0930085 19.86694336 0.11352539 C19.86694336 2.42352539 19.86694336 4.73352539 19.86694336 7.11352539 C15.24694336 7.11352539 10.62694336 7.11352539 5.86694336 7.11352539 C5.86694336 9.09352539 5.86694336 11.07352539 5.86694336 13.11352539 C10.15694336 13.11352539 14.44694336 13.11352539 18.86694336 13.11352539 C18.86694336 15.42352539 18.86694336 17.73352539 18.86694336 20.11352539 C14.57694336 20.11352539 10.28694336 20.11352539 5.86694336 20.11352539 C5.86694336 21.76352539 5.86694336 23.41352539 5.86694336 25.11352539 C12.79694336 25.60852539 12.79694336 25.60852539 19.86694336 26.11352539 C19.86694336 28.42352539 19.86694336 30.73352539 19.86694336 33.11352539 C12.60694336 33.11352539 5.34694336 33.11352539 -2.13305664 33.11352539 C-3.58831764 30.20300339 -3.26291551 27.63796129 -3.26586914 24.39086914 C-3.26682587 23.73018936 -3.26778259 23.06950958 -3.26876831 22.3888092 C-3.2694488 20.9926036 -3.26760364 19.59639483 -3.26342773 18.20019531 C-3.25806907 16.05599925 -3.26338143 13.91201186 -3.26977539 11.76782227 C-3.26911475 10.41300409 -3.26783389 9.05818605 -3.26586914 7.70336914 C-3.26474121 6.46449951 -3.26361328 5.22562988 -3.26245117 3.94921875 C-3.08974937 0.16444242 -3.08974937 0.16444242 0 0 Z " fill="#0887CD" transform="translate(433.133056640625,235.886474609375)"/>
<path d="M0 0 C3.26849254 2.05665738 4.22701749 4.6871753 5.84375 8.16015625 C5.59375 10.59765625 5.59375 10.59765625 4.84375 12.16015625 C2.53375 12.16015625 0.22375 12.16015625 -2.15625 12.16015625 C-2.341875 11.52078125 -2.5275 10.88140625 -2.71875 10.22265625 C-4.09156437 7.78321709 -4.09156437 7.78321709 -7.59375 7.22265625 C-11.01421862 6.81520053 -11.01421862 6.81520053 -12.859375 8.34375 C-14.56503423 10.73270043 -14.52509612 12.24749534 -14.46875 15.16015625 C-14.46488281 16.02640625 -14.46101563 16.89265625 -14.45703125 17.78515625 C-14.3020717 20.42433562 -14.3020717 20.42433562 -12.15625 23.16015625 C-8.69855809 23.74357978 -8.69855809 23.74357978 -5.15625 23.16015625 C-4.66125 22.50015625 -4.16625 21.84015625 -3.65625 21.16015625 C-3.16125 20.50015625 -2.66625 19.84015625 -2.15625 19.16015625 C1.53125 18.91015625 1.53125 18.91015625 4.84375 19.16015625 C5.59375 20.78515625 5.59375 20.78515625 5.84375 23.16015625 C3.5581318 27.46766748 1.43812389 30.4006088 -3.15625 32.16015625 C-8.52889334 32.82557538 -12.76473549 32.85591351 -17.65625 30.41015625 C-22.95359853 25.64254258 -23.94433225 22.39190201 -24.40625 15.34765625 C-24.37170122 10.81312935 -22.93073221 7.30061473 -21.15625 3.16015625 C-20.49625 3.16015625 -19.83625 3.16015625 -19.15625 3.16015625 C-19.15625 2.50015625 -19.15625 1.84015625 -19.15625 1.16015625 C-12.78547453 -2.30222172 -6.85033323 -2.66815515 0 0 Z " fill="#128BC6" transform="translate(297.15625,236.83984375)"/>
<path d="M0 0 C7.59 0 15.18 0 23 0 C23 2.31 23 4.62 23 7 C18.38 7 13.76 7 9 7 C9 8.65 9 10.3 9 12 C13.29 12.33 17.58 12.66 22 13 C22 14.98 22 16.96 22 19 C21 20 21 20 18.27734375 20.09765625 C17.17519531 20.08605469 16.07304688 20.07445312 14.9375 20.0625 C13.28041016 20.04896484 13.28041016 20.04896484 11.58984375 20.03515625 C10.73519531 20.02355469 9.88054687 20.01195312 9 20 C9 21.65 9 23.3 9 25 C15.93 25.495 15.93 25.495 23 26 C23 27.98 23 29.96 23 32 C21.37799485 33.62200515 19.57976969 33.1299075 17.34375 33.1328125 C15.93416016 33.13474609 15.93416016 33.13474609 14.49609375 33.13671875 C13.50738281 33.13285156 12.51867187 33.12898438 11.5 33.125 C10.51128906 33.12886719 9.52257812 33.13273437 8.50390625 33.13671875 C7.56417969 33.13542969 6.62445313 33.13414062 5.65625 33.1328125 C4.78806641 33.13168457 3.91988281 33.13055664 3.02539062 33.12939453 C1 33 1 33 0 32 C-0.0883967 29.6243148 -0.11530305 27.27791326 -0.09765625 24.90234375 C-0.0962413 24.19348526 -0.09482635 23.48462677 -0.09336853 22.75428772 C-0.08775443 20.48198288 -0.07519963 18.20977525 -0.0625 15.9375 C-0.05748681 14.40039204 -0.05292359 12.86328255 -0.04882812 11.32617188 C-0.0386297 7.55071333 -0.01905732 3.77546596 0 0 Z " fill="#54A6D1" transform="translate(102,236)"/>
<path d="M0 0 C8.91 0 17.82 0 27 0 C27 2.31 27 4.62 27 7 C24.03 7 21.06 7 18 7 C18.00785522 8.1281311 18.00785522 8.1281311 18.01586914 9.27905273 C18.03657227 12.66519342 18.04963877 16.05132084 18.0625 19.4375 C18.07087891 20.62150391 18.07925781 21.80550781 18.08789062 23.02539062 C18.09272461 24.71245117 18.09272461 24.71245117 18.09765625 26.43359375 C18.10551147 27.99678345 18.10551147 27.99678345 18.11352539 29.59155273 C18 32 18 32 17 33 C13.5 33.125 13.5 33.125 10 33 C9 32 9 32 8.88647461 29.59155273 C8.89171143 28.54942627 8.89694824 27.5072998 8.90234375 26.43359375 C8.90556641 25.30888672 8.90878906 24.18417969 8.91210938 23.02539062 C8.92048828 21.84138672 8.92886719 20.65738281 8.9375 19.4375 C8.94201172 18.24962891 8.94652344 17.06175781 8.95117188 15.83789062 C8.96300325 12.89187774 8.97948713 9.94596319 9 7 C6.03 7 3.06 7 0 7 C0 4.69 0 2.38 0 0 Z " fill="#2395D5" transform="translate(201,236)"/>
<path d="M0 0 C2.64 0 5.28 0 8 0 C8 10.89 8 21.78 8 33 C1 33 1 33 -0.9375 31.3125 C-2.14820847 28.67742863 -2.2389871 26.86784522 -2 24 C-2.99 23.67 -3.98 23.34 -5 23 C-5.33 21.02 -5.66 19.04 -6 17 C-6.99 16.67 -7.98 16.34 -9 16 C-9 14.35 -9 12.7 -9 11 C-8.01 11.495 -8.01 11.495 -7 12 C-6.34 11.34 -5.68 10.68 -5 10 C-5 10.66 -5 11.32 -5 12 C-4.34 12 -3.68 12 -3 12 C-2.01 13.485 -2.01 13.485 -1 15 C-0.67 10.05 -0.34 5.1 0 0 Z " fill="#0E89CF" transform="translate(69,236)"/>
<path d="M0 0 C4.599375 -0.020625 9.19875 -0.04125 13.9375 -0.0625 C15.39019287 -0.071604 16.84288574 -0.08070801 18.33959961 -0.09008789 C19.47405518 -0.09258545 20.60851074 -0.09508301 21.77734375 -0.09765625 C23.52905884 -0.10551147 23.52905884 -0.10551147 25.31616211 -0.11352539 C28 0 28 0 29 1 C29.10035816 3.52002451 29.13617712 6.012662 29.12939453 8.53320312 C29.13114685 9.32178207 29.13289917 10.11036102 29.13470459 10.9228363 C29.13912358 13.5423296 29.13618496 16.16175596 29.1328125 18.78125 C29.13348553 20.5934653 29.13445554 22.40568052 29.13571167 24.21789551 C29.13718871 28.02108619 29.1350339 31.82425344 29.13037109 35.62744141 C29.1246738 40.51378495 29.12795278 45.40007357 29.13394356 50.2864151 C29.13754901 54.03005389 29.13641066 57.77367955 29.13381577 61.51731873 C29.13314645 63.31953437 29.13397507 65.12175118 29.13629532 66.92396545 C29.13882159 69.43827491 29.13498162 71.95249417 29.12939453 74.46679688 C29.13141876 75.21904037 29.13344299 75.97128387 29.13552856 76.74632263 C29.1142626 81.8857374 29.1142626 81.8857374 28 83 C25.92737924 83.08767112 23.85179706 83.10695873 21.77734375 83.09765625 C19.88725586 83.09282227 19.88725586 83.09282227 17.95898438 83.08789062 C16.61848891 83.07953403 15.27799412 83.07106907 13.9375 83.0625 C12.59310058 83.0574866 11.2486994 83.05292342 9.90429688 83.04882812 C6.60282059 83.03699488 3.30143197 83.02050971 0 83 C0 82.34 0 81.68 0 81 C8.91 81 17.82 81 27 81 C27 54.93 27 28.86 27 2 C18.75 2 10.5 2 2 2 C2 12.56 2 23.12 2 34 C1.01 33.67 0.02 33.34 -1 33 C-0.67 22.11 -0.34 11.22 0 0 Z " fill="#60ADD4" transform="translate(199,279)"/>
<path d="M0 0 C6.6 0 13.2 0 20 0 C20 1.32 20 2.64 20 4 C15.38 4.33 10.76 4.66 6 5 C6 11.93 6 18.86 6 26 C10.62 26 15.24 26 20 26 C20 27.32 20 28.64 20 30 C13.4 30.33 6.8 30.66 0 31 C0 20.77 0 10.54 0 0 Z " fill="#0E84C6" transform="translate(103,237)"/>
<path d="M0 0 C1.30062431 3.81516464 0.89369853 7.27561763 0.5625 11.25 C0.46066406 12.51328125 0.35882813 13.7765625 0.25390625 15.078125 C0.17011719 16.04234375 0.08632813 17.0065625 0 18 C0.66 18 1.32 18 2 18 C2 18.66 2 19.32 2 20 C2.66 19.34 3.32 18.68 4 18 C4 17.01 4 16.02 4 15 C4.15127402 13.43593472 4.31902522 11.87340748 4.5 10.3125 C4.5928125 9.50425781 4.685625 8.69601563 4.78125 7.86328125 C4.8534375 7.24839844 4.925625 6.63351563 5 6 C5.66 6 6.32 6 7 6 C7.07347656 6.92232422 7.07347656 6.92232422 7.1484375 7.86328125 C7.22320312 8.67152344 7.29796875 9.47976562 7.375 10.3125 C7.44460938 11.11300781 7.51421875 11.91351563 7.5859375 12.73828125 C7.89564426 15.27224441 7.89564426 15.27224441 10 18 C13.45769191 18.58342353 13.45769191 18.58342353 17 18 C17.495 17.34 17.99 16.68 18.5 16 C18.995 15.34 19.49 14.68 20 14 C23.6875 13.75 23.6875 13.75 27 14 C27.75 15.625 27.75 15.625 28 18 C25.7143818 22.30751123 23.59437389 25.24045255 19 27 C13.62735666 27.66541913 9.39151451 27.69575726 4.5 25.25 C0.58464903 21.72618412 -1.39707893 19.30570538 -2 14 C-2.25081776 8.73282712 -1.98639385 4.96598462 0 0 Z " fill="#2595CD" transform="translate(275,242)"/>
<path d="M0 0 C5.61 0.33 11.22 0.66 17 1 C17.33 2.65 17.66 4.3 18 6 C16.35 6 14.7 6 13 6 C12.67 5.01 12.34 4.02 12 3 C9.69 3 7.38 3 5 3 C5.32597168 3.54366211 5.65194336 4.08732422 5.98779297 4.64746094 C7.20833637 7.48420869 7.22810356 9.55826514 7.1953125 12.640625 C7.18564453 14.24550781 7.18564453 14.24550781 7.17578125 15.8828125 C7.15902344 16.99398437 7.14226562 18.10515625 7.125 19.25 C7.11597656 20.37664062 7.10695313 21.50328125 7.09765625 22.6640625 C7.07410658 25.44292365 7.0412168 28.2213539 7 31 C5.02 31 3.04 31 1 31 C-0.11911712 27.64264863 -0.11365586 25.11794614 -0.09765625 21.58203125 C-0.09443359 20.32841797 -0.09121094 19.07480469 -0.08789062 17.78320312 C-0.07951172 16.47287109 -0.07113281 15.16253906 -0.0625 13.8125 C-0.05748317 12.47721519 -0.05292059 11.14192859 -0.04882812 9.80664062 C-0.03702704 6.5377412 -0.01909136 3.26886498 0 0 Z " fill="#0388D0" transform="translate(381,236)"/>
<path d="M0 0 C0.91644287 0.00523682 1.83288574 0.01047363 2.77709961 0.01586914 C3.76645508 0.0190918 4.75581055 0.02231445 5.77514648 0.02563477 C6.81606445 0.03401367 7.85698242 0.04239258 8.92944336 0.05102539 C10.49662109 0.05779297 10.49662109 0.05779297 12.09545898 0.06469727 C14.68600996 0.07652627 17.27644895 0.0930085 19.86694336 0.11352539 C19.86694336 2.42352539 19.86694336 4.73352539 19.86694336 7.11352539 C15.24694336 7.11352539 10.62694336 7.11352539 5.86694336 7.11352539 C5.86694336 9.09352539 5.86694336 11.07352539 5.86694336 13.11352539 C5.53694336 13.11352539 5.20694336 13.11352539 4.86694336 13.11352539 C4.86694336 10.80352539 4.86694336 8.49352539 4.86694336 6.11352539 C9.48694336 6.11352539 14.10694336 6.11352539 18.86694336 6.11352539 C18.86694336 4.46352539 18.86694336 2.81352539 18.86694336 1.11352539 C12.26694336 1.11352539 5.66694336 1.11352539 -1.13305664 1.11352539 C-1.13305664 11.01352539 -1.13305664 20.91352539 -1.13305664 31.11352539 C5.13694336 31.11352539 11.40694336 31.11352539 17.86694336 31.11352539 C17.86694336 29.79352539 17.86694336 28.47352539 17.86694336 27.11352539 C13.57694336 27.11352539 9.28694336 27.11352539 4.86694336 27.11352539 C4.86694336 24.47352539 4.86694336 21.83352539 4.86694336 19.11352539 C9.48694336 19.11352539 14.10694336 19.11352539 18.86694336 19.11352539 C18.86694336 19.44352539 18.86694336 19.77352539 18.86694336 20.11352539 C14.57694336 20.11352539 10.28694336 20.11352539 5.86694336 20.11352539 C5.86694336 21.76352539 5.86694336 23.41352539 5.86694336 25.11352539 C12.79694336 25.60852539 12.79694336 25.60852539 19.86694336 26.11352539 C19.86694336 28.42352539 19.86694336 30.73352539 19.86694336 33.11352539 C12.60694336 33.11352539 5.34694336 33.11352539 -2.13305664 33.11352539 C-3.58831764 30.20300339 -3.26291551 27.63796129 -3.26586914 24.39086914 C-3.26682587 23.73018936 -3.26778259 23.06950958 -3.26876831 22.3888092 C-3.2694488 20.9926036 -3.26760364 19.59639483 -3.26342773 18.20019531 C-3.25806907 16.05599925 -3.26338143 13.91201186 -3.26977539 11.76782227 C-3.26911475 10.41300409 -3.26783389 9.05818605 -3.26586914 7.70336914 C-3.26474121 6.46449951 -3.26361328 5.22562988 -3.26245117 3.94921875 C-3.08974937 0.16444242 -3.08974937 0.16444242 0 0 Z " fill="#84B9D5" transform="translate(433.133056640625,235.886474609375)"/>
<path d="M0 0 C0.99 0 1.98 0 3 0 C3 0.99 3 1.98 3 3 C4.32 2.67 5.64 2.34 7 2 C7.16677223 10.04212755 6.6466598 17.98603754 6 26 C4.35 26 2.7 26 1 26 C0.66068773 23.33397504 0.32842824 20.66736986 0 18 C-0.09539062 17.25621094 -0.19078125 16.51242187 -0.2890625 15.74609375 C-0.89212153 10.79239458 -1.17827214 5.99161991 -1 1 C-0.67 0.67 -0.34 0.34 0 0 Z " fill="#0488CF" transform="translate(211,241)"/>
<path d="M0 0 C1.32 0 2.64 0 4 0 C2.99586549 2.55179136 1.96470421 5.07947557 0.8515625 7.5859375 C-2.23167872 14.59687455 -4.35512653 21.53817108 -6.203125 28.9453125 C-7 32 -7 32 -8 34 C-12.29165262 34.02891949 -16.58328036 34.04677118 -20.875 34.0625 C-22.09832031 34.07087891 -23.32164062 34.07925781 -24.58203125 34.08789062 C-25.74863281 34.09111328 -26.91523438 34.09433594 -28.1171875 34.09765625 C-29.73536377 34.10551147 -29.73536377 34.10551147 -31.38623047 34.11352539 C-34 34 -34 34 -36 33 C-35.505 28.545 -35.505 28.545 -35 24 C-34.67 24 -34.34 24 -34 24 C-34 26.64 -34 29.28 -34 32 C-32.91972534 31.75552124 -32.91972534 31.75552124 -31.81762695 31.50610352 C-29.10597883 31.01903597 -26.66780647 30.88547358 -23.91796875 30.90234375 C-22.98662109 30.90556641 -22.05527344 30.90878906 -21.09570312 30.91210938 C-20.13599609 30.92048828 -19.17628906 30.92886719 -18.1875 30.9375 C-17.20845703 30.94201172 -16.22941406 30.94652344 -15.22070312 30.95117188 C-12.81373889 30.96291316 -10.40690143 30.97933581 -8 31 C-8.020625 29.7625 -8.04125 28.525 -8.0625 27.25 C-8.0625 23.10401437 -7.30769881 19.92309642 -6 16 C-5.34 16 -4.68 16 -4 16 C-4 14.35 -4 12.7 -4 11 C-3.34 11 -2.68 11 -2 11 C-2.02320313 10.37351563 -2.04640625 9.74703125 -2.0703125 9.1015625 C-2.08835937 8.28429687 -2.10640625 7.46703125 -2.125 6.625 C-2.14820313 5.81289062 -2.17140625 5.00078125 -2.1953125 4.1640625 C-2 2 -2 2 0 0 Z " fill="#5DB4D7" transform="translate(309,192)"/>
<path d="M0 0 C1.65 0 3.3 0 5 0 C5 0.66 5 1.32 5 2 C4.01 2.66 3.02 3.32 2 4 C1.41312216 7.34613512 1.41312216 7.34613512 1.3125 11.125 C1.24675781 12.40632812 1.18101562 13.68765625 1.11328125 15.0078125 C1.07589844 15.99523437 1.03851563 16.98265625 1 18 C3.64 18 6.28 18 9 18 C8 20 8 20 5.5 21 C-2.93147752 23.40899358 -2.93147752 23.40899358 -7 24 C-8 23 -8 23 -8.09765625 21.15234375 C-8.06510417 19.1015625 -8.03255208 17.05078125 -8 15 C-7.01 15 -6.02 15 -5 15 C-5 14.34 -5 13.68 -5 13 C-4.34 13 -3.68 13 -3 13 C-3.0928125 11.453125 -3.0928125 11.453125 -3.1875 9.875 C-2.98864405 5.76531027 -2.05532197 3.51117504 0 0 Z " fill="#0987CB" transform="translate(338,238)"/>
<path d="M0 0 C0.66 0.33 1.32 0.66 2 1 C3.70363822 1.22622081 5.41328701 1.40888473 7.125 1.5625 C8.03507812 1.64628906 8.94515625 1.73007813 9.8828125 1.81640625 C10.58148438 1.87699219 11.28015625 1.93757812 12 2 C12 2.99 12 3.98 12 5 C12.66 5.66 13.32 6.32 14 7 C10.04 7 6.08 7 2 7 C2 8.65 2 10.3 2 12 C8.93 12.495 8.93 12.495 16 13 C16 14.98 16 16.96 16 19 C15 20 15 20 12.95874023 20.11352539 C12.08419189 20.10828857 11.20964355 20.10305176 10.30859375 20.09765625 C9.36435547 20.09443359 8.42011719 20.09121094 7.44726562 20.08789062 C5.95743164 20.07532227 5.95743164 20.07532227 4.4375 20.0625 C3.44041016 20.05798828 2.44332031 20.05347656 1.41601562 20.04882812 C-1.05604849 20.03700007 -3.52799518 20.02051849 -6 20 C-4 18 -4 18 -2.12060547 17.77294922 C-1.37697754 17.78342285 -0.63334961 17.79389648 0.1328125 17.8046875 C0.93847656 17.81113281 1.74414062 17.81757813 2.57421875 17.82421875 C3.83685547 17.84935547 3.83685547 17.84935547 5.125 17.875 C6.39923828 17.88853516 6.39923828 17.88853516 7.69921875 17.90234375 C9.79959884 17.92594353 11.89983444 17.96181517 14 18 C14 16.68 14 15.36 14 14 C9.38 14.33 4.76 14.66 0 15 C-1.03876383 11.88370851 -1.13361625 9.6405571 -1.125 6.375 C-1.12757812 5.39273438 -1.13015625 4.41046875 -1.1328125 3.3984375 C-1 1 -1 1 0 0 Z " fill="#4BACDF" transform="translate(109,249)"/>
<path d="M0 0 C3.63 0 7.26 0 11 0 C12.82901588 4.57253969 13.22853587 6.60161793 13.125 11.3125 C13.10695313 12.38113281 13.08890625 13.44976562 13.0703125 14.55078125 C13.04710937 15.35902344 13.02390625 16.16726562 13 17 C11.68 16.67 10.36 16.34 9 16 C8.814375 14.2984375 8.814375 14.2984375 8.625 12.5625 C8.41875 11.386875 8.2125 10.21125 8 9 C7.34 8.67 6.68 8.34 6 8 C5.34 10.97 4.68 13.94 4 17 C3.67 17 3.34 17 3 17 C3 13.04 3 9.08 3 5 C4.32 4.67 5.64 4.34 7 4 C7 3.34 7 2.68 7 2 C4.54775306 2.10613836 4.54775306 2.10613836 2 3 C-0.18622172 6.71657692 -0.50191245 10.7662558 -1 15 C-1.66 15 -2.32 15 -3 15 C-3 15.66 -3 16.32 -3 17 C-3.66 17 -4.32 17 -5 17 C-3.83348574 11.07136283 -2.24480642 5.61201606 0 0 Z " fill="#1E91CF" transform="translate(336,236)"/>
<path d="M0 0 C0.33 0.66 0.66 1.32 1 2 C0.06553465 4.03144641 -0.93224776 6.03533587 -2 8 C-2.66 8 -3.32 8 -4 8 C-4.103125 8.639375 -4.20625 9.27875 -4.3125 9.9375 C-4.539375 10.618125 -4.76625 11.29875 -5 12 C-5.99 12.33 -6.98 12.66 -8 13 C-9.11680706 15.84979639 -9.11680706 15.84979639 -10 19 C-10.65035814 20.34136367 -11.3162955 21.67532254 -12 23 C-12.433125 24.2065625 -12.433125 24.2065625 -12.875 25.4375 C-14.18660371 28.42504179 -15.80275749 30.59676601 -18 33 C-18.66 33 -19.32 33 -20 33 C-19.938125 34.051875 -19.938125 34.051875 -19.875 35.125 C-20.01668332 38.38371628 -20.86734686 40.9559947 -22 44 C-22.99 44 -23.98 44 -25 44 C-23.74373662 38.26710263 -22.00253009 33.39152286 -19.3125 28.1875 C-18.9616333 27.4975293 -18.6107666 26.80755859 -18.24926758 26.09667969 C-15.18705637 20.16928593 -11.79255974 14.49201055 -8 9 C-7.48050781 8.24203125 -6.96101563 7.4840625 -6.42578125 6.703125 C-5.95527344 6.14109375 -5.48476563 5.5790625 -5 5 C-4.34 5 -3.68 5 -3 5 C-2.690625 4.360625 -2.38125 3.72125 -2.0625 3.0625 C-1 1 -1 1 0 0 Z " fill="#369BCA" transform="translate(303,159)"/>
<path d="M0 0 C0.66 0 1.32 0 2 0 C2 6.6 2 13.2 2 20 C6.62 20 11.24 20 16 20 C16 21.32 16 22.64 16 24 C10.06 24 4.12 24 -2 24 C-2.05385444 20.56229171 -2.09360344 17.12542358 -2.125 13.6875 C-2.14175781 12.71103516 -2.15851563 11.73457031 -2.17578125 10.72851562 C-2.18222656 9.79072266 -2.18867187 8.85292969 -2.1953125 7.88671875 C-2.20578613 7.02264404 -2.21625977 6.15856934 -2.22705078 5.26831055 C-2 3 -2 3 0 0 Z " fill="#0289D6" transform="translate(107,243)"/>
<path d="M0 0 C1.30062431 3.81516464 0.89369853 7.27561763 0.5625 11.25 C0.46066406 12.51328125 0.35882813 13.7765625 0.25390625 15.078125 C0.17011719 16.04234375 0.08632813 17.0065625 0 18 C0.66 18 1.32 18 2 18 C2 18.66 2 19.32 2 20 C2.66 19.34 3.32 18.68 4 18 C4 17.01 4 16.02 4 15 C4.15127402 13.43593472 4.31902522 11.87340748 4.5 10.3125 C4.5928125 9.50425781 4.685625 8.69601563 4.78125 7.86328125 C4.8534375 7.24839844 4.925625 6.63351563 5 6 C5.66 6 6.32 6 7 6 C7.66 10.95 8.32 15.9 9 21 C11.64 21 14.28 21 17 21 C16.34 21.33 15.68 21.66 15 22 C14.67 22.99 14.34 23.98 14 25 C5.36037822 25.90590209 5.36037822 25.90590209 2.2578125 23.83984375 C-1.97257017 18.94611705 -2.22715279 14.24190438 -2.16796875 8.00390625 C-1.92855635 5.14766067 -1.05920738 2.64801846 0 0 Z " fill="#2897D2" transform="translate(275,242)"/>
<path d="M0 0 C3.08089673 2.77280706 4.68775452 5.06326356 6 9 C6.66 9 7.32 9 8 9 C9.54296875 10.86328125 9.54296875 10.86328125 11.1875 13.3125 C11.73792969 14.11300781 12.28835937 14.91351563 12.85546875 15.73828125 C13.23316406 16.48464844 13.61085937 17.23101562 14 18 C13.505 19.485 13.505 19.485 13 21 C8.41667994 21.02901401 3.83338349 21.04680348 -0.75 21.0625 C-2.05195312 21.07087891 -3.35390625 21.07925781 -4.6953125 21.08789062 C-6.57089844 21.09272461 -6.57089844 21.09272461 -8.484375 21.09765625 C-10.21252441 21.10551147 -10.21252441 21.10551147 -11.97558594 21.11352539 C-14.53748953 21.01736094 -16.59445217 20.85016464 -19 20 C-20.484375 18.37109375 -20.484375 18.37109375 -21.75 16.4375 C-22.17796875 15.79683594 -22.6059375 15.15617188 -23.046875 14.49609375 C-23.36140625 14.00238281 -23.6759375 13.50867188 -24 13 C-23.67 12.34 -23.34 11.68 -23 11 C-18.125 14.625 -18.125 14.625 -17 18 C-3.14 18.495 -3.14 18.495 11 19 C10.18437076 16.81846156 10.18437076 16.81846156 8 16.1875 C6 15 6 15 5.3125 12.5 C5.209375 11.675 5.10625 10.85 5 10 C4.67 9.34 4.34 8.68 4 8 C3.01 7.67 2.02 7.34 1 7 C0.67 4.69 0.34 2.38 0 0 Z " fill="#6AADCF" transform="translate(123,205)"/>
<path d="M0 0 C0.33 0 0.66 0 1 0 C1 26.07 1 52.14 1 79 C-8.24 79 -17.48 79 -27 79 C-27 78.01 -27 77.02 -27 76 C-26.01 75.505 -26.01 75.505 -25 75 C-25 75.66 -25 76.32 -25 77 C-16.75 77.33 -8.5 77.66 0 78 C0 52.26 0 26.52 0 0 Z " fill="#1287C8" transform="translate(225,281)"/>
<path d="M0 0 C0.88139648 -0.00064453 1.76279297 -0.00128906 2.67089844 -0.00195312 C9.42209025 0.05247202 15.77675253 0.68545993 22.375 2.1875 C22.375 2.5175 22.375 2.8475 22.375 3.1875 C21.82598526 3.19780746 21.27697052 3.20811493 20.71131897 3.21873474 C15.01778719 3.32657947 9.32442079 3.44119449 3.63110352 3.55981445 C1.50385993 3.60323423 -0.6234201 3.64490393 -2.75073242 3.68481445 C-5.80138151 3.74234707 -8.85184589 3.80608967 -11.90234375 3.87109375 C-12.85962875 3.88780624 -13.81691376 3.90451874 -14.8032074 3.92173767 C-15.68404495 3.94168289 -16.56488251 3.96162811 -17.47241211 3.98217773 C-18.6415641 4.00549416 -18.6415641 4.00549416 -19.83433533 4.02928162 C-21.64793353 3.99639119 -21.64793353 3.99639119 -22.625 5.1875 C-25.29558851 5.32865161 -27.94932238 5.22997107 -30.625 5.1875 C-30.625 4.8575 -30.625 4.5275 -30.625 4.1875 C-28.25024166 3.70710995 -25.87520845 3.22815526 -23.5 2.75 C-22.50226563 2.54793945 -22.50226563 2.54793945 -21.484375 2.34179688 C-19.5327375 1.949556 -17.57888097 1.56840811 -15.625 1.1875 C-14.67109375 0.99414062 -13.7171875 0.80078125 -12.734375 0.6015625 C-8.48120119 0.03518508 -4.28653591 -0.00322903 0 0 Z " fill="#50A8D3" transform="translate(371.625,131.8125)"/>
<path d="M0 0 C1.37608552 0.08868107 2.75091742 0.19685939 4.125 0.3125 C5.27355469 0.39951172 5.27355469 0.39951172 6.4453125 0.48828125 C9 1 9 1 11.7355957 2.39819336 C23.12395964 7.98633604 35.00468466 8.63171013 47.4375 8.75 C48.95901671 8.77825743 50.48050312 8.80819785 52.00195312 8.83984375 C55.66782651 8.91252867 59.33357387 8.96280019 63 9 C63 9.33 63 9.66 63 10 C40.63916307 12.55552422 20.61113191 10.36520705 0 1 C0 0.67 0 0.34 0 0 Z " fill="#4AA6D3" transform="translate(326,354)"/>
<path d="M0 0 C1.32 0 2.64 0 4 0 C5.36952673 2.73905345 5.12621361 4.97087332 5 8 C4.67 8.66 4.34 9.32 4 10 C2.35 10 0.7 10 -1 10 C-0.67 12.97 -0.34 15.94 0 19 C-0.99 19.33 -1.98 19.66 -3 20 C-4.33333333 16 -5.66666667 12 -7 8 C-5.35 7.34 -3.7 6.68 -2 6 C-2 5.01 -2 4.02 -2 3 C-1.34 2.67 -0.68 2.34 0 2 C0 1.34 0 0.68 0 0 Z " fill="#0785C7" transform="translate(400,244)"/>
<path d="M0 0 C3.07443606 -0.35474262 5.93912465 -0.52066436 9 0 C11.625 2.8125 11.625 2.8125 13 6 C12.67 6.99 12.34 7.98 12 9 C10.68 8.67 9.36 8.34 8 8 C7.67 9.32 7.34 10.64 7 12 C7.99 12 8.98 12 10 12 C9.34 13.32 8.68 14.64 8 16 C4 9.25 4 9.25 4 7 C3.34 7 2.68 7 2 7 C0.5393715 4.35261084 0 3.10551666 0 0 Z " fill="#429FD4" transform="translate(149,236)"/>
<path d="M0 0 C2 2 2 2 4 14 C-5.57 14 -15.14 14 -25 14 C-27.25 8.375 -27.25 8.375 -26 5 C-25.34 5.33 -24.68 5.66 -24 6 C-23.67 7.98 -23.34 9.96 -23 12 C-15.08 11.67 -7.16 11.34 1 11 C0.67 10.67 0.34 10.34 0 10 C-0.07205511 8.31391034 -0.08386068 6.62499341 -0.0625 4.9375 C-0.05347656 4.01839844 -0.04445313 3.09929687 -0.03515625 2.15234375 C-0.02355469 1.44207031 -0.01195312 0.73179687 0 0 Z " fill="#328EC1" transform="translate(459,193)"/>
<path d="M0 0 C0.85464844 0.08765625 1.70929688 0.1753125 2.58984375 0.265625 C5.89954124 0.91397016 8.19149046 1.68804842 10.36328125 4.3359375 C13.11814401 9.20747088 13.11814401 9.20747088 12.8125 12.1875 C12.565 12.703125 12.3175 13.21875 12.0625 13.75 C9.7525 13.75 7.4425 13.75 5.0625 13.75 C3.9375 11.625 3.9375 11.625 3.0625 8.75 C3.7225 6.77 4.3825 4.79 5.0625 2.75 C0.7725 2.42 -3.5175 2.09 -7.9375 1.75 C-4.56242304 -0.5000513 -3.85625815 -0.44071522 0 0 Z " fill="#128ED3" transform="translate(289.9375,235.25)"/>
<path d="M0 0 C0.99 1.32 1.98 2.64 3 4 C3.66 3.67 4.32 3.34 5 3 C7.04055005 2.92934383 9.08334257 2.91578024 11.125 2.9375 C12.22070312 2.94652344 13.31640625 2.95554687 14.4453125 2.96484375 C15.28835938 2.97644531 16.13140625 2.98804688 17 3 C17.33 3.66 17.66 4.32 18 5 C14.37 5 10.74 5 7 5 C6.67 6.65 6.34 8.3 6 10 C5.67 10.66 5.34 11.32 5 12 C2.36 12 -0.28 12 -3 12 C-2.49202991 7.6822542 -1.80317221 3.96697886 0 0 Z " fill="#3FA5DA" transform="translate(329,257)"/>
<path d="M0 0 C5.61 0.33 11.22 0.66 17 1 C17.33 2.65 17.66 4.3 18 6 C16.35 6 14.7 6 13 6 C12.67 5.01 12.34 4.02 12 3 C8.7 2.67 5.4 2.34 2 2 C2.33 11.57 2.66 21.14 3 31 C2.34 31 1.68 31 1 31 C-0.11911712 27.64264863 -0.11365586 25.11794614 -0.09765625 21.58203125 C-0.09443359 20.32841797 -0.09121094 19.07480469 -0.08789062 17.78320312 C-0.07951172 16.47287109 -0.07113281 15.16253906 -0.0625 13.8125 C-0.05748317 12.47721519 -0.05292059 11.14192859 -0.04882812 9.80664062 C-0.03702704 6.5377412 -0.01909136 3.26886498 0 0 Z " fill="#1C88BE" transform="translate(381,236)"/>
<path d="M0 0 C0.92232422 0.06960937 0.92232422 0.06960937 1.86328125 0.140625 C0.16454994 4.72802019 -2.1979801 8.61436245 -4.796875 12.73828125 C-6.01700621 14.92598006 -6.67936501 16.69575873 -7.13671875 19.140625 C-7.79671875 17.160625 -8.45671875 15.180625 -9.13671875 13.140625 C-8.47671875 13.140625 -7.81671875 13.140625 -7.13671875 13.140625 C-7.13671875 12.480625 -7.13671875 11.820625 -7.13671875 11.140625 C-6.47671875 11.140625 -5.81671875 11.140625 -5.13671875 11.140625 C-5.46671875 9.490625 -5.79671875 7.840625 -6.13671875 6.140625 C-7.12671875 5.810625 -8.11671875 5.480625 -9.13671875 5.140625 C-9.46671875 6.460625 -9.79671875 7.780625 -10.13671875 9.140625 C-10.79671875 9.140625 -11.45671875 9.140625 -12.13671875 9.140625 C-9.46645885 1.74605912 -7.96526492 -0.35570561 0 0 Z " fill="#2695CA" transform="translate(176.13671875,235.859375)"/>
<path d="M0 0 C4.62 0 9.24 0 14 0 C14 0.33 14 0.66 14 1 C9.71 1 5.42 1 1 1 C1 2.65 1 4.3 1 6 C7.93 6.495 7.93 6.495 15 7 C15 9.31 15 11.62 15 14 C7.74 14 0.48 14 -7 14 C-5 12 -5 12 -3.12060547 11.77294922 C-2.37697754 11.78342285 -1.63334961 11.79389648 -0.8671875 11.8046875 C0.34130859 11.81435547 0.34130859 11.81435547 1.57421875 11.82421875 C2.83685547 11.84935547 2.83685547 11.84935547 4.125 11.875 C5.39923828 11.88853516 5.39923828 11.88853516 6.69921875 11.90234375 C8.79959884 11.92594353 10.89983444 11.96181517 13 12 C13 10.68 13 9.36 13 8 C8.71 8 4.42 8 0 8 C0 5.36 0 2.72 0 0 Z " fill="#7DC1E4" transform="translate(438,255)"/>
<path d="M0 0 C0.28617188 0.63421875 0.57234375 1.2684375 0.8671875 1.921875 C2.22655542 4.41561201 3.41080309 4.96432124 6 6 C4.92598892 8.91517292 4.22189824 10.77810176 2 13 C-0.68839385 13.26991906 -3.29141936 13.08737357 -6 13 C-5.51675181 7.84535266 -2.81389239 4.18449681 0 0 Z " fill="#45A6D5" transform="translate(155,256)"/>
<path d="M0 0 C2 4 2 4 2 6 C7.28 6.33 12.56 6.66 18 7 C18 8.32 18 9.64 18 11 C12.06 11 6.12 11 0 11 C0 7.37 0 3.74 0 0 Z " fill="#0489D8" transform="translate(433,256)"/>
<path d="M0 0 C2.58361518 -0.05407567 5.16609255 -0.093707 7.75 -0.125 C8.84441406 -0.15013672 8.84441406 -0.15013672 9.9609375 -0.17578125 C17.03496105 -0.24009055 17.03496105 -0.24009055 20 2 C21.8125 5.4375 21.8125 5.4375 23 9 C22.67 9.99 22.34 10.98 22 12 C21.67 10.68 21.34 9.36 21 8 C19.68 8 18.36 8 17 8 C17.33 8.99 17.66 9.98 18 11 C17.01 11 16.02 11 15 11 C15 11.99 15 12.98 15 14 C14.34 13.67 13.68 13.34 13 13 C12.375 10.4375 12.375 10.4375 12 8 C9.03 7.505 9.03 7.505 6 7 C6 6.67 6 6.34 6 6 C9.3 6 12.6 6 16 6 C15.67 4.35 15.34 2.7 15 1 C10.05 1 5.1 1 0 1 C0 0.67 0 0.34 0 0 Z " fill="#49A5D1" transform="translate(383,236)"/>
<path d="M0 0 C0.99 0.33 1.98 0.66 3 1 C3 2.65 3 4.3 3 6 C2.34 6 1.68 6 1 6 C1 6.62648437 1 7.25296875 1 7.8984375 C1 17 1 17 0 20 C-0.66 20 -1.32 20 -2 20 C-2 19.34 -2 18.68 -2 18 C-2.66 18 -3.32 18 -4 18 C-4.05449838 16.27119018 -4.09301688 14.54187288 -4.125 12.8125 C-4.14820313 11.84957031 -4.17140625 10.88664063 -4.1953125 9.89453125 C-3.98896101 6.8364022 -3.38418613 4.72481396 -2 2 C-1.34 1.67 -0.68 1.34 0 1 C0 0.67 0 0.34 0 0 Z " fill="#0483CA" transform="translate(279,242)"/>
<path d="M0 0 C0.99 0 1.98 0 3 0 C4.35278115 1.98689731 5.68568305 3.98745218 7 6 C7.99 6.33 8.98 6.66 10 7 C12 10 12 10 12 13 C10.52093108 13.02689216 9.04172517 13.04634621 7.5625 13.0625 C6.32693359 13.07990234 6.32693359 13.07990234 5.06640625 13.09765625 C3 13 3 13 2 12 C1.957279 10.33388095 1.95936168 8.66617115 2 7 C2 6.34 2 5.68 2 5 C1.34 4.67 0.68 4.34 0 4 C0 2.68 0 1.36 0 0 Z " fill="#0788D3" transform="translate(166,256)"/>
<path d="M0 0 C0.33 0 0.66 0 1 0 C1.02886751 4.14581887 1.04675327 8.29161216 1.0625 12.4375 C1.07087891 13.62150391 1.07925781 14.80550781 1.08789062 16.02539062 C1.09111328 17.15009766 1.09433594 18.27480469 1.09765625 19.43359375 C1.10289307 20.47572021 1.10812988 21.51784668 1.11352539 22.59155273 C1 25 1 25 0 26 C-3.5 26.125 -3.5 26.125 -7 26 C-8 25 -8 25 -8.11352539 23.23413086 C-8.10828857 22.48526611 -8.10305176 21.73640137 -8.09765625 20.96484375 C-8.09443359 20.15595703 -8.09121094 19.34707031 -8.08789062 18.51367188 C-8.07951172 17.66353516 -8.07113281 16.81339844 -8.0625 15.9375 C-8.05798828 15.08349609 -8.05347656 14.22949219 -8.04882812 13.34960938 C-8.03700373 11.23304337 -8.01906769 9.11651315 -8 7 C-7.67 7 -7.34 7 -7 7 C-6.67 12.61 -6.34 18.22 -6 24 C-4.35 24 -2.7 24 -1 24 C-1.01160156 23.10539062 -1.02320313 22.21078125 -1.03515625 21.2890625 C-1.08867011 14.11820485 -0.91804983 7.11488616 0 0 Z " fill="#9BD1E6" transform="translate(218,243)"/>
<path d="M0 0 C1.32 0 2.64 0 4 0 C2.99586549 2.55179136 1.96470421 5.07947557 0.8515625 7.5859375 C-2.65230771 15.55333663 -4.93946436 23.57367547 -7 32 C-7.33 32 -7.66 32 -8 32 C-8.2358396 26.22192976 -7.86783046 21.48675196 -6 16 C-5.34 16 -4.68 16 -4 16 C-4 14.35 -4 12.7 -4 11 C-3.34 11 -2.68 11 -2 11 C-2.02320313 10.37351563 -2.04640625 9.74703125 -2.0703125 9.1015625 C-2.09738281 7.87566406 -2.09738281 7.87566406 -2.125 6.625 C-2.14820313 5.81289062 -2.17140625 5.00078125 -2.1953125 4.1640625 C-2 2 -2 2 0 0 Z " fill="#51A5D1" transform="translate(309,192)"/>
<path d="M0 0 C0.99 0 1.98 0 3 0 C3 0.99 3 1.98 3 3 C4.32 2.67 5.64 2.34 7 2 C7 5.3 7 8.6 7 12 C6.01 11.34 5.02 10.68 4 10 C4 9.34 4 8.68 4 8 C3.01 8 2.02 8 1 8 C1 12.29 1 16.58 1 21 C0.67 21 0.34 21 0 21 C-0.19592461 17.68794116 -0.38032746 14.37534146 -0.5625 11.0625 C-0.61857422 10.11697266 -0.67464844 9.17144531 -0.73242188 8.19726562 C-0.78076172 7.29814453 -0.82910156 6.39902344 -0.87890625 5.47265625 C-0.9260376 4.64000244 -0.97316895 3.80734863 -1.02172852 2.94946289 C-1 1 -1 1 0 0 Z " fill="#188BC7" transform="translate(211,241)"/>
<path d="M0 0 C0.33 0.99 0.66 1.98 1 3 C-0.3125 4.5 -0.3125 4.5 -2 6 C-2.99 6 -3.98 6 -5 6 C-5.185625 6.94875 -5.37125 7.8975 -5.5625 8.875 C-7 12 -7 12 -10.625 13.375 C-11.73875 13.58125 -12.8525 13.7875 -14 14 C-14.66 13.34 -15.32 12.68 -16 12 C-10.97934696 7.36657818 -5.92147718 3.41744827 0 0 Z " fill="#0B85C9" transform="translate(320,146)"/>
<path d="M0 0 C0.66 1.32 1.32 2.64 2 4 C-1.45877212 9.86487447 -6.11321868 14.30117181 -11 19 C-11.83786631 15.91278489 -12.35525296 14.00091727 -11 11 C-9.36935236 9.94228261 -7.69719127 8.94726954 -6 8 C-5.278125 7.278125 -4.55625 6.55625 -3.8125 5.8125 C-2.9153125 4.9153125 -2.9153125 4.9153125 -2 4 C-1.34 4 -0.68 4 0 4 C0 2.68 0 1.36 0 0 Z " fill="#3D9FCE" transform="translate(444,326)"/>
<path d="M0 0 C0.495 0.99 0.495 0.99 1 2 C0.34 2 -0.32 2 -1 2 C-1.33 2.99 -1.66 3.98 -2 5 C-3.32 5 -4.64 5 -6 5 C-6.33 5.99 -6.66 6.98 -7 8 C-9.43326371 8.91515201 -11.67304799 9.59306964 -14.1875 10.1875 C-14.89841797 10.3618457 -15.60933594 10.53619141 -16.34179688 10.71582031 C-23.27817214 12.28835259 -29.89554586 12.39962555 -37 12 C-37 11.67 -37 11.34 -37 11 C-36.06800781 10.90203125 -35.13601563 10.8040625 -34.17578125 10.703125 C-21.85396048 9.25789627 -10.63708321 6.70658476 0 0 Z " fill="#78B9DF" transform="translate(410,326)"/>
<path d="M0 0 C3.63 0 7.26 0 11 0 C11 1.32 11 2.64 11 4 C9.68 4 8.36 4 7 4 C7 3.34 7 2.68 7 2 C4.54775306 2.10613836 4.54775306 2.10613836 2 3 C-0.18622172 6.71657692 -0.50191245 10.7662558 -1 15 C-1.66 15 -2.32 15 -3 15 C-3 15.66 -3 16.32 -3 17 C-3.66 17 -4.32 17 -5 17 C-3.83348574 11.07136283 -2.24480642 5.61201606 0 0 Z " fill="#2A90C4" transform="translate(336,236)"/>
<path d="M0 0 C-19.09433962 8 -19.09433962 8 -28 8 C-28 7.34 -28 6.68 -28 6 C-25.69 6 -23.38 6 -21 6 C-20.67 5.01 -20.34 4.02 -20 3 C-17.17956516 2.08558534 -14.50985935 1.37222456 -11.625 0.75 C-10.84382813 0.564375 -10.06265625 0.37875 -9.2578125 0.1875 C-3.40570791 -1.13523597 -3.40570791 -1.13523597 0 0 Z " fill="#3E9FD1" transform="translate(417,355)"/>
<path d="M0 0 C0.33 0 0.66 0 1 0 C1.33 10.23 1.66 20.46 2 31 C3.98 31 5.96 31 8 31 C8 27.7 8 24.4 8 21 C9.65 21 11.3 21 13 21 C11.68 21.33 10.36 21.66 9 22 C9.01160156 22.71027344 9.02320313 23.42054688 9.03515625 24.15234375 C9.04869141 25.53099609 9.04869141 25.53099609 9.0625 26.9375 C9.07410156 27.85402344 9.08570313 28.77054687 9.09765625 29.71484375 C9 32 9 32 8 33 C4.5 33.125 4.5 33.125 1 33 C0 32 0 32 -0.11352539 28.94897461 C-0.11336634 27.60008729 -0.10767612 26.25119386 -0.09765625 24.90234375 C-0.0962413 24.19348526 -0.09482635 23.48462677 -0.09336853 22.75428772 C-0.08775443 20.48198288 -0.07519963 18.20977525 -0.0625 15.9375 C-0.05748681 14.40039204 -0.05292359 12.86328255 -0.04882812 11.32617188 C-0.03778042 7.55074358 -0.02050641 3.77538829 0 0 Z " fill="#9BDEEE" transform="translate(380,236)"/>
<path d="M0 0 C0.33 0 0.66 0 1 0 C1 10.89 1 21.78 1 33 C-1.31 33 -3.62 33 -6 33 C-6.66 31.68 -7.32 30.36 -8 29 C-7.34 29 -6.68 29 -6 29 C-6 29.66 -6 30.32 -6 31 C-4.35 31 -2.7 31 -1 31 C-1.01160156 30.1028125 -1.02320312 29.205625 -1.03515625 28.28125 C-1.10364317 18.81048798 -0.69495992 9.44400891 0 0 Z " fill="#51A1CD" transform="translate(76,236)"/>
<path d="M0 0 C2.64 0.33 5.28 0.66 8 1 C8.04254356 2.99954746 8.04080783 5.00041636 8 7 C7 8 7 8 4.95874023 8.11352539 C4.08419189 8.10828857 3.20964355 8.10305176 2.30859375 8.09765625 C1.36435547 8.09443359 0.42011719 8.09121094 -0.55273438 8.08789062 C-1.54595703 8.07951172 -2.53917969 8.07113281 -3.5625 8.0625 C-4.55958984 8.05798828 -5.55667969 8.05347656 -6.58398438 8.04882812 C-9.05604849 8.03700007 -11.52799518 8.02051849 -14 8 C-12 6 -12 6 -10.12060547 5.77294922 C-9.37697754 5.78342285 -8.63334961 5.79389648 -7.8671875 5.8046875 C-7.06152344 5.81113281 -6.25585938 5.81757813 -5.42578125 5.82421875 C-4.16314453 5.84935547 -4.16314453 5.84935547 -2.875 5.875 C-1.60076172 5.88853516 -1.60076172 5.88853516 -0.30078125 5.90234375 C1.79959884 5.92594353 3.89983444 5.96181517 6 6 C6 4.68 6 3.36 6 2 C4.02 2 2.04 2 0 2 C0 1.34 0 0.68 0 0 Z " fill="#6DB6DD" transform="translate(117,261)"/>
<path d="M0 0 C1.16781006 0.00523682 2.33562012 0.01047363 3.53881836 0.01586914 C4.79887695 0.0190918 6.05893555 0.02231445 7.35717773 0.02563477 C8.6976732 0.03399136 10.03816799 0.04245632 11.37866211 0.05102539 C12.72306153 0.05603879 14.06746271 0.06060197 15.41186523 0.06469727 C18.71334151 0.07653051 22.01473014 0.09301568 25.31616211 0.11352539 C27.65544782 5.49745396 27.65544782 5.49745396 26.31616211 9.11352539 C25.96553711 8.14415039 25.61491211 7.17477539 25.25366211 6.17602539 C24.61428711 5.16540039 23.97491211 4.15477539 23.31616211 3.11352539 C18.10061885 1.96557503 12.82450036 1.90044361 7.50366211 1.86352539 C6.35994141 1.83258789 6.35994141 1.83258789 5.19311523 1.80102539 C2.73708577 1.74825444 2.73708577 1.74825444 -0.68383789 2.11352539 C-1.67383789 3.59852539 -1.67383789 3.59852539 -2.68383789 5.11352539 C-3.24633789 3.17602539 -3.24633789 3.17602539 -3.68383789 1.11352539 C-2.68383789 0.11352539 -2.68383789 0.11352539 0 0 Z " fill="#67AACE" transform="translate(277.683837890625,278.886474609375)"/>
<path d="M0 0 C0.99 0 1.98 0 3 0 C3 0.99 3 1.98 3 3 C4.65 3 6.3 3 8 3 C7.01 3.495 7.01 3.495 6 4 C6.60183749 6.02045442 7.27306096 8.02111039 8 10 C8.66 10.33 9.32 10.66 10 11 C10 11.99 10 12.98 10 14 C9.34 14 8.68 14 8 14 C5.79855191 11.12557036 3.95104804 8.05381433 2 5 C1.67 9.62 1.34 14.24 1 19 C0.67 19 0.34 19 0 19 C0 12.73 0 6.46 0 0 Z " fill="#6EBAE4" transform="translate(57,249)"/>
<path d="M0 0 C1.32 0.33 2.64 0.66 4 1 C3.67 1.66 3.34 2.32 3 3 C3.99882134 5.40949089 3.99882134 5.40949089 5.4375 8 C8 12.80381471 8 12.80381471 8 15 C5.03 15 2.06 15 -1 15 C-1 14.01 -1 13.02 -1 12 C0.98 12.66 2.96 13.32 5 14 C4.67 12.35 4.34 10.7 4 9 C2.68 8.67 1.36 8.34 0 8 C0 5.36 0 2.72 0 0 Z " fill="#66B4DF" transform="translate(399,254)"/>
<path d="M0 0 C1.32 0.33 2.64 0.66 4 1 C3.34 1 2.68 1 2 1 C2.33 7.6 2.66 14.2 3 21 C2.34 21 1.68 21 1 21 C0.67 21.66 0.34 22.32 0 23 C-0.66 23 -1.32 23 -2 23 C-1.84152588 22.4337793 -1.68305176 21.86755859 -1.51977539 21.28417969 C-0.99214152 18.9654655 -0.795844 16.82641603 -0.68359375 14.453125 C-0.64169922 13.60878906 -0.59980469 12.76445312 -0.55664062 11.89453125 C-0.51732422 11.02183594 -0.47800781 10.14914063 -0.4375 9.25 C-0.39431641 8.36183594 -0.35113281 7.47367188 -0.30664062 6.55859375 C-0.20086385 4.37254037 -0.09877454 2.18637911 0 0 Z " fill="#2287C2" transform="translate(69,236)"/>
<path d="M0 0 C3.5718623 3.5718623 4 8.10186234 4 13 C1.36 13 -1.28 13 -4 13 C-5.4606285 10.35261084 -6 9.10551666 -6 6 C-5.34 6 -4.68 6 -4 6 C-4 7.65 -4 9.3 -4 11 C-0.82990528 9.37921338 -0.82990528 9.37921338 -0.48828125 6.8359375 C-0.43027344 6.02382813 -0.37226563 5.21171875 -0.3125 4.375 C-0.24675781 3.55773437 -0.18101562 2.74046875 -0.11328125 1.8984375 C-0.07589844 1.27195312 -0.03851563 0.64546875 0 0 Z " fill="#61B3DE" transform="translate(353,256)"/>
<path d="M0 0 C4.62 0 9.24 0 14 0 C14 1.98 14 3.96 14 6 C9.38 6 4.76 6 0 6 C0 5.34 0 4.68 0 4 C0.78246094 3.95101562 1.56492187 3.90203125 2.37109375 3.8515625 C3.38300781 3.77679688 4.39492188 3.70203125 5.4375 3.625 C6.44683594 3.55539063 7.45617187 3.48578125 8.49609375 3.4140625 C9.73552734 3.20910156 9.73552734 3.20910156 11 3 C11.33 2.34 11.66 1.68 12 1 C8.04 1 4.08 1 0 1 C0 0.67 0 0.34 0 0 Z " fill="#2486BE" transform="translate(438,249)"/>
<path d="M0 0 C1.6396875 0.2475 1.6396875 0.2475 3.3125 0.5 C6.87525873 1.06718184 6.87525873 1.06718184 10 1 C9.814375 1.94875 9.62875 2.8975 9.4375 3.875 C8.71313368 6.89868793 8.71313368 6.89868793 10 9 C6.92626537 8.37128155 4.66742592 7.87574371 2.7109375 5.30859375 C1.73799524 3.57619657 0.86195317 1.79021043 0 0 Z " fill="#208FD2" transform="translate(94,209)"/>
<path d="M0 0 C8.44646925 6.15034169 8.44646925 6.15034169 12 10 C11.01 10.33 10.02 10.66 9 11 C8.195625 10.505 7.39125 10.01 6.5625 9.5 C3.88704823 7.53282425 3.88704823 7.53282425 0 9 C0 6.03 0 3.06 0 0 Z " fill="#3897D2" transform="translate(322,317)"/>
<path d="M0 0 C1.8125 0.0625 1.8125 0.0625 4 1 C5.81278756 4.4960903 7 7.03981755 7 11 C7.66 11 8.32 11 9 11 C9 11.66 9 12.32 9 13 C9.66 13 10.32 13 11 13 C11.33 14.65 11.66 16.3 12 18 C6.87217161 13.49372656 3.31840053 7.93869374 0 2 C0 1.34 0 0.68 0 0 Z " fill="#5EADD7" transform="translate(286,313)"/>
<path d="M0 0 C0.99 0.33 1.98 0.66 3 1 C3 1.66 3 2.32 3 3 C4.32 2.34 5.64 1.68 7 1 C7.103125 1.721875 7.20625 2.44375 7.3125 3.1875 C8.05986932 6.24491993 9.28045189 8.38329635 11 11 C10.01 11.66 9.02 12.32 8 13 C6.66388095 11.0226631 5.33100742 9.04327287 4 7.0625 C3.6184375 6.49853516 3.236875 5.93457031 2.84375 5.35351562 C0 1.11328125 0 1.11328125 0 0 Z " fill="#359DD6" transform="translate(148,287)"/>
<path d="M0 0 C1.29349365 0.00523682 2.5869873 0.01047363 3.91967773 0.01586914 C4.9496714 0.01799156 4.9496714 0.01799156 6.00047302 0.02015686 C8.20144949 0.0257706 10.40232557 0.03832532 12.60327148 0.05102539 C14.09220231 0.05603863 15.58113473 0.06060184 17.07006836 0.06469727 C20.72700223 0.07574446 24.38387707 0.09301826 28.04077148 0.11352539 C28.04077148 0.44352539 28.04077148 0.77352539 28.04077148 1.11352539 C18.47077148 1.11352539 8.90077148 1.11352539 -0.95922852 1.11352539 C0.03077148 2.76352539 1.02077148 4.41352539 2.04077148 6.11352539 C1.38077148 6.77352539 0.72077148 7.43352539 0.04077148 8.11352539 C-1.93922852 4.64852539 -1.93922852 4.64852539 -3.95922852 1.11352539 C-2.95922852 0.11352539 -2.95922852 0.11352539 0 0 Z " fill="#6DB2D6" transform="translate(146.959228515625,278.886474609375)"/>
<path d="M0 0 C0.33 3.96 0.66 7.92 1 12 C0.01 12.33 -0.98 12.66 -2 13 C-3.33333333 9 -4.66666667 5 -6 1 C-3.92446352 0.4465236 -2.15634036 0 0 0 Z " fill="#0488D8" transform="translate(399,251)"/>
<path d="M0 0 C1.30062431 3.81516464 0.89369853 7.27561763 0.5625 11.25 C0.46066406 12.51328125 0.35882813 13.7765625 0.25390625 15.078125 C0.17011719 16.04234375 0.08632813 17.0065625 0 18 C0.66 18 1.32 18 2 18 C2 18.66 2 19.32 2 20 C2.66 20 3.32 20 4 20 C4.33 21.65 4.66 23.3 5 25 C0.60970994 21.07184574 -1.62353978 17.99688621 -2.18359375 12.05078125 C-2.32614798 7.64837118 -1.6535133 4.13378326 0 0 Z " fill="#53A7CD" transform="translate(275,242)"/>
<path d="M0 0 C0.99 0.33 1.98 0.66 3 1 C1.65651525 5.48052165 -0.13141124 9.28288819 -2.5 13.3125 C-3.1084375 14.36050781 -3.716875 15.40851563 -4.34375 16.48828125 C-6 19 -6 19 -8 20 C-7.67 17.69 -7.34 15.38 -7 13 C-6.01 13 -5.02 13 -4 13 C-4 12.01 -4 11.02 -4 10 C-3.34 10 -2.68 10 -2 10 C-2 8.68 -2 7.36 -2 6 C-1.34 6 -0.68 6 0 6 C0 4.02 0 2.04 0 0 Z " fill="#5DAFD5" transform="translate(454,310)"/>
<path d="M0 0 C0.66 0 1.32 0 2 0 C2.6875 1.8125 2.6875 1.8125 3 4 C1.13203422 6.5561637 -1.11127172 7.80014427 -4 9 C-6.7265625 9.265625 -6.7265625 9.265625 -9.625 9.25 C-10.58664062 9.25515625 -11.54828125 9.2603125 -12.5390625 9.265625 C-15 9 -15 9 -17 7 C-12.71 7 -8.42 7 -4 7 C-4 6.01 -4 5.02 -4 4 C-2.68 4 -1.36 4 0 4 C0 2.68 0 1.36 0 0 Z " fill="#58AFD7" transform="translate(298,260)"/>
<path d="M0 0 C3.08089673 2.77280706 4.68775452 5.06326356 6 9 C6.66 9 7.32 9 8 9 C9.6875 11.3125 9.6875 11.3125 11 14 C10.67 14.99 10.34 15.98 10 17 C8.0625 16.3125 8.0625 16.3125 6 15 C5.3125 12.5 5.3125 12.5 5 10 C4.67 9.34 4.34 8.68 4 8 C3.01 7.67 2.02 7.34 1 7 C0.67 4.69 0.34 2.38 0 0 Z " fill="#4E9ECA" transform="translate(123,205)"/>
<path d="M0 0 C2.86724686 0.57344937 3.8614515 0.8614515 6 3 C6.66 2.67 7.32 2.34 8 2 C9 8.625 9 8.625 9 12 C4.99027798 8.32442148 2.54664585 4.81033104 0 0 Z " fill="#1F8FD3" transform="translate(181,335)"/>
<path d="M0 0 C1.32 0.33 2.64 0.66 4 1 C2.71937515 2.7074998 1.38232443 4.37373596 0 6 C-0.66 6 -1.32 6 -2 6 C-2.2475 6.7425 -2.495 7.485 -2.75 8.25 C-4.09147301 11.20124062 -5.60905526 12.84814974 -8 15 C-7.67 13.02 -7.34 11.04 -7 9 C-6.34 9 -5.68 9 -5 9 C-4.67 7.35 -4.34 5.7 -4 4 C-2.68 3.67 -1.36 3.34 0 3 C0 2.01 0 1.02 0 0 Z " fill="#53A9D4" transform="translate(321,177)"/>
<path d="M0 0 C1.65 0.33 3.3 0.66 5 1 C1.11327187 4.18005028 -2.89952133 7.10554447 -7 10 C-7.66 9.01 -8.32 8.02 -9 7 C-7.35 6.67 -5.7 6.34 -4 6 C-3.67 4.68 -3.34 3.36 -3 2 C-2.34 2 -1.68 2 -1 2 C-0.67 1.34 -0.34 0.68 0 0 Z " fill="#43A5D6" transform="translate(334,166)"/>
<path d="M0 0 C0.99 0.33 1.98 0.66 3 1 C3 1.99 3 2.98 3 4 C4.32 3.34 5.64 2.68 7 2 C8.5 3.3125 8.5 3.3125 10 5 C10 5.99 10 6.98 10 8 C6.05783322 7.7312159 4.43510186 7.44655191 1.625 4.5625 C0 2 0 2 0 0 Z " fill="#2096DA" transform="translate(394,260)"/>
<path d="M0 0 C13.34816248 -0.38878143 13.34816248 -0.38878143 18 2 C18.33 2.99 18.66 3.98 19 5 C12.73 3.68 6.46 2.36 0 1 C0 0.67 0 0.34 0 0 Z " fill="#55ACD9" transform="translate(378,159)"/>
<path d="M0 0 C1.09570312 0.00902344 2.19140625 0.01804687 3.3203125 0.02734375 C4.16335938 0.03894531 5.00640625 0.05054688 5.875 0.0625 C6.205 0.7225 6.535 1.3825 6.875 2.0625 C3.245 2.0625 -0.385 2.0625 -4.125 2.0625 C-4.455 3.7125 -4.785 5.3625 -5.125 7.0625 C-7.125 4.0625 -7.125 4.0625 -8.125 1.0625 C-5.36047967 -0.31976016 -3.0788637 -0.03275387 0 0 Z " fill="#5DAFD2" transform="translate(340.125,259.9375)"/>
<path d="M0 0 C2.31 0 4.62 0 7 0 C7.33 0.99 7.66 1.98 8 3 C5.69 2.34 3.38 1.68 1 1 C1 8.59 1 16.18 1 24 C0.67 24 0.34 24 0 24 C0 16.08 0 8.16 0 0 Z " fill="#3391CA" transform="translate(50,236)"/>
<path d="M0 0 C1.89692143 0.45380895 3.79249595 0.91324992 5.6875 1.375 C6.74324219 1.63023437 7.79898437 1.88546875 8.88671875 2.1484375 C11.70406766 2.91905489 14.31668325 3.85498543 17 5 C17 5.33 17 5.66 17 6 C15.39667209 6.08121924 13.79215974 6.13929134 12.1875 6.1875 C11.29417969 6.22230469 10.40085937 6.25710937 9.48046875 6.29296875 C6.53068488 5.94456908 5.86528166 5.22057341 4 3 C1.90010348 1.82425289 1.90010348 1.82425289 0 1 C0 0.67 0 0.34 0 0 Z " fill="#3F96C9" transform="translate(395,135)"/>
<path d="M0 0 C0.33 0 0.66 0 1 0 C0.50269348 4.97306516 -0.55302334 8.63799813 -3 13 C-4.32 13 -5.64 13 -7 13 C-7 12.34 -7 11.68 -7 11 C-6.34 11 -5.68 11 -5 11 C-4.731875 10.113125 -4.46375 9.22625 -4.1875 8.3125 C-3.07959847 5.22203785 -1.83465282 2.71209548 0 0 Z " fill="#4BA1D1" transform="translate(430,302)"/>
<path d="M0 0 C1.5 1.3125 1.5 1.3125 3 3 C3 3.99 3 4.98 3 6 C3.66 6 4.32 6 5 6 C9 11.41176471 9 11.41176471 9 14 C7.35 14 5.7 14 4 14 C3.855625 13.2575 3.71125 12.515 3.5625 11.75 C3.09812508 9.47972261 2.58136431 7.24240521 2 5 C1.34 5 0.68 5 0 5 C0 3.35 0 1.7 0 0 Z " fill="#56A5D4" transform="translate(309,298)"/>
<path d="M0 0 C5.28 0 10.56 0 16 0 C16 0.33 16 0.66 16 1 C13.41747107 1.50449402 10.83411297 2.00374301 8.25 2.5 C7.15558594 2.71462891 7.15558594 2.71462891 6.0390625 2.93359375 C2.60656468 3.58888879 -0.49169491 4 -4 4 C-4 3.34 -4 2.68 -4 2 C-2.68 2 -1.36 2 0 2 C0 1.34 0 0.68 0 0 Z " fill="#59AFDA" transform="translate(352,159)"/>
<path d="M0 0 C2.64 0 5.28 0 8 0 C7.814375 0.598125 7.62875 1.19625 7.4375 1.8125 C6.77906313 4.16408762 6.77906313 4.16408762 8 7 C7.01 7 6.02 7 5 7 C5 6.01 5 5.02 5 4 C3.35 4 1.7 4 0 4 C0 2.68 0 1.36 0 0 Z " fill="#178AC9" transform="translate(388,253)"/>
<path d="M0 0 C1.98 0.495 1.98 0.495 4 1 C4 1.66 4 2.32 4 3 C5.98 3 7.96 3 10 3 C10.33 3.66 10.66 4.32 11 5 C9.9275 4.938125 8.855 4.87625 7.75 4.8125 C3.89133813 5.00543309 2.71182212 5.39665076 0 8 C-0.79953138 4.71303767 -1.09658936 3.28976808 0 0 Z " fill="#379FD1" transform="translate(282,239)"/>
<path d="M0 0 C2.475 0.495 2.475 0.495 5 1 C5 2.32 5 3.64 5 5 C5.66 5 6.32 5 7 5 C7.66 7.64 8.32 10.28 9 13 C5.48026899 9.74098981 2.47239725 6.1139069 0 2 C0 1.34 0 0.68 0 0 Z " fill="#46A0D0" transform="translate(79,187)"/>
<path d="M0 0 C0.99 0 1.98 0 3 0 C3.66 0.99 4.32 1.98 5 3 C5.99 3.66 6.98 4.32 8 5 C7.01 6.485 7.01 6.485 6 8 C3.36 6.02 0.72 4.04 -2 2 C-1.34 1.34 -0.68 0.68 0 0 Z " fill="#349ED5" transform="translate(312,342)"/>
<path d="M0 0 C2.64 0 5.28 0 8 0 C9.125 4.75 9.125 4.75 8 7 C4.2047869 5.50902342 2.38957269 3.24299151 0 0 Z " fill="#40A4D6" transform="translate(302,336)"/>
<path d="M0 0 C0.66 0 1.32 0 2 0 C3.28317892 3.84953676 3.06643637 6.94738135 3 11 C1.68 11 0.36 11 -1 11 C-0.67 7.37 -0.34 3.74 0 0 Z " fill="#0184D6" transform="translate(52,256)"/>
<path d="M0 0 C0.85464844 0.08765625 1.70929688 0.1753125 2.58984375 0.265625 C5.05977598 0.74946638 6.88233722 1.51575471 9.0625 2.75 C8.7325 4.07 8.4025 5.39 8.0625 6.75 C7.0725 6.42 6.0825 6.09 5.0625 5.75 C5.0625 4.76 5.0625 3.77 5.0625 2.75 C0.7725 2.42 -3.5175 2.09 -7.9375 1.75 C-4.56242304 -0.5000513 -3.85625815 -0.44071522 0 0 Z " fill="#5EAED3" transform="translate(289.9375,235.25)"/>
<path d="M0 0 C3.63 0 7.26 0 11 0 C11 0.99 11 1.98 11 3 C7.04 3 3.08 3 -1 3 C-0.67 2.01 -0.34 1.02 0 0 Z " fill="#028AD5" transform="translate(112,238)"/>
<path d="M0 0 C1.31534494 3.65857532 0.65468309 6.08026481 -0.4375 9.75 C-0.72496094 10.73484375 -1.01242187 11.7196875 -1.30859375 12.734375 C-1.53675781 13.48203125 -1.76492188 14.2296875 -2 15 C-2.99 15 -3.98 15 -5 15 C-3.78623966 9.67812773 -2.27376292 4.96093728 0 0 Z " fill="#5CB1D2" transform="translate(283,188)"/>
<path d="M0 0 C0.58265625 0.13277344 1.1653125 0.26554687 1.765625 0.40234375 C8.49048942 1.85093876 15.14015858 2.55210657 22 3 C22 3.33 22 3.66 22 4 C19.2697611 4.1083667 16.54385457 4.18746694 13.8125 4.25 C13.04357422 4.28351563 12.27464844 4.31703125 11.48242188 4.3515625 C7.35389569 4.42243849 5.49844836 4.32932056 1.94921875 1.984375 C1.30597656 1.32953125 0.66273438 0.6746875 0 0 Z " fill="#77BADB" transform="translate(348,334)"/>
<path d="M0 0 C0.33 0.66 0.66 1.32 1 2 C0.34 2 -0.32 2 -1 2 C-1.33 2.99 -1.66 3.98 -2 5 C-3.32 5 -4.64 5 -6 5 C-6.33 5.99 -6.66 6.98 -7 8 C-8.98 8.33 -10.96 8.66 -13 9 C-12 6 -12 6 -9.27734375 4.39453125 C-8.17519531 3.87246094 -7.07304687 3.35039062 -5.9375 2.8125 C-4.83277344 2.28269531 -3.72804688 1.75289063 -2.58984375 1.20703125 C-1.73519531 0.80871094 -0.88054687 0.41039062 0 0 Z " fill="#56A7D5" transform="translate(410,326)"/>
<path d="M0 0 C1.32 0.33 2.64 0.66 4 1 C4 1.99 4 2.98 4 4 C5.32 4.66 6.64 5.32 8 6 C7.67 6.99 7.34 7.98 7 9 C7.66 9.33 8.32 9.66 9 10 C9 10.66 9 11.32 9 12 C8.34 12 7.68 12 7 12 C5.2734375 9.62890625 5.2734375 9.62890625 3.375 6.5625 C2.74335938 5.55316406 2.11171875 4.54382813 1.4609375 3.50390625 C0 1 0 1 0 0 Z " fill="#53A9D6" transform="translate(157,300)"/>
<path d="M0 0 C0.33 0 0.66 0 1 0 C0.67 4.29 0.34 8.58 0 13 C-0.66 13 -1.32 13 -2 13 C-2 13.66 -2 14.32 -2 15 C-2.66 15 -3.32 15 -4 15 C-2.9318153 9.88634986 -1.76892524 4.92772031 0 0 Z " fill="#53AACF" transform="translate(335,238)"/>
<path d="M0 0 C2.62451617 2.62451617 2.5832868 4.4877828 3.125 8.125 C3.29257812 9.22070312 3.46015625 10.31640625 3.6328125 11.4453125 C3.75398438 12.28835937 3.87515625 13.13140625 4 14 C2.35 13.67 0.7 13.34 -1 13 C-0.34 12.34 0.32 11.68 1 11 C0.67 10.67 0.34 10.34 0 10 C-0.07205511 8.31391034 -0.08386068 6.62499341 -0.0625 4.9375 C-0.05347656 4.01839844 -0.04445313 3.09929687 -0.03515625 2.15234375 C-0.02355469 1.44207031 -0.01195312 0.73179687 0 0 Z " fill="#489ED0" transform="translate(459,193)"/>
<path d="M0 0 C0.33 0.99 0.66 1.98 1 3 C-1.52956528 6.0916909 -4.22454612 6.90931332 -8 8 C-8 7.01 -8 6.02 -8 5 C-6.25 3.61328125 -6.25 3.61328125 -4 2.3125 C-3.2575 1.87550781 -2.515 1.43851563 -1.75 0.98828125 C-1.1725 0.66214844 -0.595 0.33601562 0 0 Z " fill="#3A9BCA" transform="translate(320,146)"/>
<path d="M0 0 C0.66 0 1.32 0 2 0 C3.22539501 2.77756202 4.02724169 5.17366576 4.5 8.1875 C4.74585812 11.12747383 4.74585812 11.12747383 7 13 C6.34 13 5.68 13 5 13 C4.67 13.66 4.34 14.32 4 15 C3.32779649 13.06441401 2.66241923 11.12645628 2 9.1875 C1.62875 8.10855469 1.2575 7.02960938 0.875 5.91796875 C0 3 0 3 0 0 Z " fill="#53ABDA" transform="translate(276,287)"/>
<path d="M0 0 C0.66 0 1.32 0 2 0 C2.33 1.98 2.66 3.96 3 6 C1.02 6 -0.96 6 -3 6 C-3 4.68 -3 3.36 -3 2 C-2.01 2 -1.02 2 0 2 C0 1.34 0 0.68 0 0 Z " fill="#088CD6" transform="translate(154,261)"/>
<path d="M0 0 C1.98 0.495 1.98 0.495 4 1 C4 2.65 4 4.3 4 6 C3.34 6 2.68 6 2 6 C1.67 6.66 1.34 7.32 1 8 C-0.42944945 5.64561267 -1.08661261 4.51967567 -0.625 1.75 C-0.41875 1.1725 -0.2125 0.595 0 0 Z " fill="#0486CA" transform="translate(167,241)"/>
<path d="M0 0 C1.875 0.125 1.875 0.125 4 1 C5.40666215 4.01427603 6.14845728 6.05977053 5.625 9.375 C5.41875 9.91125 5.2125 10.4475 5 11 C4.67 9.68 4.34 8.36 4 7 C3.34 7 2.68 7 2 7 C0.5393715 4.35261084 0 3.10551666 0 0 Z " fill="#56ABDB" transform="translate(149,236)"/>
<path d="M0 0 C3.0319853 1.51599265 3.41024437 3.8596433 4.6875 6.9375 C5.14511719 8.01902344 5.60273438 9.10054687 6.07421875 10.21484375 C7 13 7 13 6 15 C1.55397698 10.55397698 0.88352014 5.98701148 0 0 Z " fill="#54A4D2" transform="translate(452,177)"/>
<path d="M0 0 C2.93200474 2.85276137 5.64315404 5.65079784 8 9 C5.69 8.67 3.38 8.34 1 8 C0.67 5.36 0.34 2.72 0 0 Z " fill="#4EA1D0" transform="translate(437,157)"/>
<path d="M0 0 C0.66 0 1.32 0 2 0 C2 0.99 2 1.98 2 3 C3.65 2.67 5.3 2.34 7 2 C6.34 3.32 5.68 4.64 5 6 C3.02 6 1.04 6 -1 6 C-0.67 4.02 -0.34 2.04 0 0 Z " fill="#2D95CD" transform="translate(432,295)"/>
<path d="M0 0 C1.5 1.3125 1.5 1.3125 3 3 C3 3.99 3 4.98 3 6 C0.03 6 -2.94 6 -6 6 C-6 5.01 -6 4.02 -6 3 C-3.03 3.495 -3.03 3.495 0 4 C0 2.68 0 1.36 0 0 Z " fill="#78BCDE" transform="translate(175,263)"/>
<path d="M0 0 C2 3 2 3 1.625 5.1875 C1.41875 5.785625 1.2125 6.38375 1 7 C-1.31 7 -3.62 7 -6 7 C-6.66 5.35 -7.32 3.7 -8 2 C-7.34 2 -6.68 2 -6 2 C-6 2.99 -6 3.98 -6 5 C-4.02 5 -2.04 5 0 5 C0 3.35 0 1.7 0 0 Z " fill="#86C5E1" transform="translate(301,242)"/>
<path d="M0 0 C1.65 0 3.3 0 5 0 C5 0.66 5 1.32 5 2 C4.01 2.66 3.02 3.32 2 4 C1.7497843 7.08365871 1.7497843 7.08365871 2 10 C1.01 10.495 1.01 10.495 0 11 C0 7.37 0 3.74 0 0 Z " fill="#0285CF" transform="translate(338,238)"/>
<path d="M0 0 C2 1 2 1 4 3 C3.25 4.9375 3.25 4.9375 2 7 C-0.125 7.75 -0.125 7.75 -2 8 C-1.79375 7.38125 -1.5875 6.7625 -1.375 6.125 C-1.25125 5.42375 -1.1275 4.7225 -1 4 C-1.66 3.34 -2.32 2.68 -3 2 C-2.01 1.34 -1.02 0.68 0 0 Z " fill="#2A95D3" transform="translate(324,143)"/>
<path d="M0 0 C-8.07744875 5.74031891 -8.07744875 5.74031891 -14 5 C-12.53698952 2.07397905 -10.58977236 1.90294791 -7.5625 0.8125 C-6.57378906 0.44769531 -5.58507812 0.08289063 -4.56640625 -0.29296875 C-2 -1 -2 -1 0 0 Z " fill="#53A5D0" transform="translate(341,138)"/>
<path d="M0 0 C4.875 1.875 4.875 1.875 6 3 C6.04080783 4.99958364 6.04254356 7.00045254 6 9 C2.91910327 6.22719294 1.31224548 3.93673644 0 0 Z " fill="#47A4D7" transform="translate(190,347)"/>
<path d="M0 0 C2.95183101 2.95183101 3.08663988 5.95511947 4 10 C1.03 9.505 1.03 9.505 -2 9 C-1.34 6.03 -0.68 3.06 0 0 Z " fill="#429DD3" transform="translate(349,245)"/>
<path d="M0 0 C0.99 0 1.98 0 3 0 C2.33333333 1.66666667 1.66666667 3.33333333 1 5 C0.649375 5.886875 0.29875 6.77375 -0.0625 7.6875 C-1 10 -1 10 -2 12 C-2.66 10.02 -3.32 8.04 -4 6 C-3.34 6 -2.68 6 -2 6 C-2 5.34 -2 4.68 -2 4 C-1.34 4 -0.68 4 0 4 C0 2.68 0 1.36 0 0 Z " fill="#56ACD6" transform="translate(171,243)"/>
<path d="M0 0 C1.32 0 2.64 0 4 0 C3.34 1.65 2.68 3.3 2 5 C0.68 5 -0.64 5 -2 5 C-1.125 1.125 -1.125 1.125 0 0 Z " fill="#2C97CE" transform="translate(309,192)"/>
<path d="M0 0 C0.99 0.33 1.98 0.66 3 1 C3 2.32 3 3.64 3 5 C3.66 5 4.32 5 5 5 C5 5.66 5 6.32 5 7 C2.03 6.01 -0.94 5.02 -4 4 C-2.68 2.68 -1.36 1.36 0 0 Z " fill="#48A3D3" transform="translate(401,161)"/>
<path d="M0 0 C2.97 0.99 5.94 1.98 9 3 C9 3.66 9 4.32 9 5 C8.05125 4.814375 7.1025 4.62875 6.125 4.4375 C3.10131207 3.71313368 3.10131207 3.71313368 1 5 C0.34 4.34 -0.32 3.68 -1 3 C-0.67 2.01 -0.34 1.02 0 0 Z " fill="#3D9BD3" transform="translate(339,330)"/>
<path d="M0 0 C0.33 0.66 0.66 1.32 1 2 C2.98 1.34 4.96 0.68 7 0 C6.1875 1.9375 6.1875 1.9375 5 4 C2 5 2 5 -1 4 C-1.33 3.01 -1.66 2.02 -2 1 C-1.34 0.67 -0.68 0.34 0 0 Z " fill="#1E91D0" transform="translate(414,323)"/>
<path d="M0 0 C-1.4317616 0.69937202 -2.87067032 1.38412718 -4.3125 2.0625 C-5.51326172 2.63677734 -5.51326172 2.63677734 -6.73828125 3.22265625 C-9 4 -9 4 -12 3 C-11 1 -11 1 -9.2578125 0.33203125 C-8.55398438 0.16058594 -7.85015625 -0.01085937 -7.125 -0.1875 C-6.42632812 -0.36667969 -5.72765625 -0.54585938 -5.0078125 -0.73046875 C-3 -1 -3 -1 0 0 Z " fill="#53B2DD" transform="translate(417,355)"/>
<path d="M0 0 C1.65 0 3.3 0 5 0 C4.67 2.31 4.34 4.62 4 7 C1.49962266 4.82575883 0.56371414 3.26954202 0 0 Z " fill="#098ADA" transform="translate(152,237)"/>
<path d="M0 0 C3.53647504 1.67517239 4.7911563 2.49280817 6.3125 6.1875 C6.539375 7.115625 6.76625 8.04375 7 9 C6.34 9 5.68 9 5 9 C3.7109375 7.5390625 3.7109375 7.5390625 2.375 5.625 C1.92898437 4.99851563 1.48296875 4.37203125 1.0234375 3.7265625 C0 2 0 2 0 0 Z " fill="#59AEDB" transform="translate(99,216)"/>
<path d="M0 0 C1.32 0.66 2.64 1.32 4 2 C1.36 3.65 -1.28 5.3 -4 7 C-4 5.68 -4 4.36 -4 3 C-3.01 2.34 -2.02 1.68 -1 1 C-0.67 0.67 -0.34 0.34 0 0 Z " fill="#3D9FD2" transform="translate(427,344)"/>
<path d="M0 0 C0.6875 1.8125 0.6875 1.8125 1 4 C-0.64504011 6.46756016 -1.80299352 6.94960299 -4.6875 7.6875 C-5.8321875 7.8421875 -5.8321875 7.8421875 -7 8 C-6.02133662 6.85373678 -5.04205413 5.70800212 -4.0625 4.5625 C-3.51722656 3.92441406 -2.97195313 3.28632813 -2.41015625 2.62890625 C-1.63204305 1.73008851 -0.84063472 0.84063472 0 0 Z " fill="#6BB2D6" transform="translate(422,315)"/>
<path d="M0 0 C0.33 0.99 0.66 1.98 1 3 C3.31 3 5.62 3 8 3 C7.67 3.66 7.34 4.32 7 5 C4.36 5 1.72 5 -1 5 C-0.67 3.35 -0.34 1.7 0 0 Z " fill="#7FC1E6" transform="translate(150,264)"/>
<path d="M0 0 C1.98 0 3.96 0 6 0 C5.01 0.495 5.01 0.495 4 1 C3.67 1.99 3.34 2.98 3 4 C1.35 4 -0.3 4 -2 4 C-1.34 2.68 -0.68 1.36 0 0 Z " fill="#0486CD" transform="translate(286,263)"/>
<path d="M0 0 C1.9375 0.5625 1.9375 0.5625 4 2 C4.75 5.625 4.75 5.625 5 9 C4.34 7.68 3.68 6.36 3 5 C2.01 5 1.02 5 0 5 C0 3.35 0 1.7 0 0 Z " fill="#2A96CA" transform="translate(401,239)"/>
<path d="M0 0 C1.98 0.495 1.98 0.495 4 1 C4 2.32 4 3.64 4 5 C2.35 5 0.7 5 -1 5 C-0.67 3.35 -0.34 1.7 0 0 Z " fill="#0388D3" transform="translate(276,219)"/>
<path d="M0 0 C0.99 0.33 1.98 0.66 3 1 C3 1.66 3 2.32 3 3 C4.32 2.34 5.64 1.68 7 1 C6.34 2.98 5.68 4.96 5 7 C2.47411298 4.63707344 1.11179163 3.33537489 0 0 Z " fill="#46A7D6" transform="translate(148,287)"/>
<path d="M0 0 C0.33 0 0.66 0 1 0 C1 1.65 1 3.3 1 5 C3.31 5 5.62 5 8 5 C4.77208445 7.1519437 3.71599191 7.20086443 0 7 C-1.04449911 3.86650268 -0.93423645 3.01031744 0 0 Z " fill="#1983C5" transform="translate(109,257)"/>
<path d="M0 0 C2.79872437 2.52788007 4.45773019 4.20411134 5 8 C1.59575156 6.86525052 0.78346291 6.03188696 -1 3 C-0.67 2.01 -0.34 1.02 0 0 Z " fill="#61ABD8" transform="translate(170,255)"/>
<path d="M0 0 C2.475 0.495 2.475 0.495 5 1 C5.33 2.32 5.66 3.64 6 5 C5.01 5.66 4.02 6.32 3 7 C0 2.25 0 2.25 0 0 Z " fill="#3EA1D9" transform="translate(164,259)"/>
<path d="M0 0 C0 1.98 0 3.96 0 6 C-2.4375 5.1875 -2.4375 5.1875 -5 4 C-5.33 3.01 -5.66 2.02 -6 1 C-3.92446352 0.4465236 -2.15634036 0 0 0 Z " fill="#0385CB" transform="translate(399,251)"/>
<path d="M0 0 C0.99 0 1.98 0 3 0 C3 1.98 3 3.96 3 6 C1.68 5.67 0.36 5.34 -1 5 C-0.67 3.35 -0.34 1.7 0 0 Z " fill="#0483CE" transform="translate(346,247)"/>
<path d="M0 0 C0.99 0.33 1.98 0.66 3 1 C3.33 1.99 3.66 2.98 4 4 C2 6 2 6 0 7 C-0.33 7.66 -0.66 8.32 -1 9 C-0.67 6.03 -0.34 3.06 0 0 Z " fill="#2394CA" transform="translate(276,240)"/>
<path d="M0 0 C1.98 0 3.96 0 6 0 C6.33 0.99 6.66 1.98 7 3 C5.68 2.67 4.36 2.34 3 2 C3 2.66 3 3.32 3 4 C1.68 4 0.36 4 -1 4 C-0.67 2.68 -0.34 1.36 0 0 Z " fill="#1A8DD3" transform="translate(157,244)"/>
<path d="M0 0 C1.65 0 3.3 0 5 0 C5.33 1.32 5.66 2.64 6 4 C4.35 4 2.7 4 1 4 C0.67 2.68 0.34 1.36 0 0 Z " fill="#048ACD" transform="translate(393,238)"/>
<path d="M0 0 C0.66 0 1.32 0 2 0 C1.34 3.63 0.68 7.26 0 11 C-0.33 11 -0.66 11 -1 11 C-1.0270043 9.54176788 -1.04639787 8.08339325 -1.0625 6.625 C-1.07410156 5.81289062 -1.08570313 5.00078125 -1.09765625 4.1640625 C-1 2 -1 2 0 0 Z " fill="#5FA9D8" transform="translate(302,213)"/>
<path d="M0 0 C2.31 0.66 4.62 1.32 7 2 C7.33 3.65 7.66 5.3 8 7 C6.66382648 6.02471263 5.3311249 5.04466681 4 4.0625 C3.2575 3.51722656 2.515 2.97195312 1.75 2.41015625 C1.1725 1.94480469 0.595 1.47945312 0 1 C0 0.67 0 0.34 0 0 Z " fill="#49A4DB" transform="translate(410,170)"/>
<path d="M0 0 C1.32 0.33 2.64 0.66 4 1 C3.6875 2.9375 3.6875 2.9375 3 5 C2.01 5.33 1.02 5.66 0 6 C0 4.02 0 2.04 0 0 Z " fill="#0487D1" transform="translate(349,261)"/>
<path d="M0 0 C0.33 0.66 0.66 1.32 1 2 C1.66 2 2.32 2 3 2 C3 2.66 3 3.32 3 4 C3.66 4 4.32 4 5 4 C5.33 5.65 5.66 7.3 6 9 C0.42857143 3.85714286 0.42857143 3.85714286 0 0 Z " fill="#66B1DD" transform="translate(274,258)"/>
<path d="M0 0 C1.125 3.75 1.125 3.75 0 6 C-0.99 6 -1.98 6 -3 6 C-3 4.35 -3 2.7 -3 1 C-2.01 0.67 -1.02 0.34 0 0 Z " fill="#3094C2" transform="translate(404,248)"/>
<path d="M0 0 C2.97 0 5.94 0 9 0 C8.34 1.65 7.68 3.3 7 5 C6.67 3.68 6.34 2.36 6 1 C3.69 1.33 1.38 1.66 -1 2 C-0.67 1.34 -0.34 0.68 0 0 Z " fill="#5FA8CB" transform="translate(169,236)"/>
<path d="M0 0 C3 1 3 1 5 4 C4.67 4.99 4.34 5.98 4 7 C2.68 6.34 1.36 5.68 0 5 C0 3.35 0 1.7 0 0 Z " fill="#3093CC" transform="translate(129,215)"/>
<path d="M0 0 C3.93673644 1.31224548 6.22719294 2.91910327 9 6 C8.01 6.33 7.02 6.66 6 7 C5.67 6.34 5.34 5.68 5 5 C4.154375 4.505 3.30875 4.01 2.4375 3.5 C1.633125 3.005 0.82875 2.51 0 2 C0 1.34 0 0.68 0 0 Z " fill="#52A7D2" transform="translate(422,146)"/>
<path d="M0 0 C1.32 0.33 2.64 0.66 4 1 C4.33 2.65 4.66 4.3 5 6 C3.0625 5.25 3.0625 5.25 1 4 C0.25 1.875 0.25 1.875 0 0 Z " fill="#3F9FD1" transform="translate(286,313)"/>
<path d="M0 0 C0.33 0.66 0.66 1.32 1 2 C0.06553465 4.03144641 -0.93224776 6.03533587 -2 8 C-2.99 7.67 -3.98 7.34 -5 7 C-5 6.34 -5 5.68 -5 5 C-4.34 5 -3.68 5 -3 5 C-2.5359375 4.0409375 -2.5359375 4.0409375 -2.0625 3.0625 C-1 1 -1 1 0 0 Z " fill="#5EB2DB" transform="translate(303,159)"/>
<path d="M0 0 C1.32 0.33 2.64 0.66 4 1 C4.66 3.31 5.32 5.62 6 8 C1.125 3.375 1.125 3.375 0 0 Z " fill="#73B9DA" transform="translate(181,335)"/>
<path d="M0 0 C2.31 0 4.62 0 7 0 C7.625 1.875 7.625 1.875 8 4 C7.34 4.66 6.68 5.32 6 6 C6 4.68 6 3.36 6 2 C3.03 1.505 3.03 1.505 0 1 C0 0.67 0 0.34 0 0 Z " fill="#7DC2DF" transform="translate(295,256)"/>
<path d="M0 0 C1.485 0.99 1.485 0.99 3 2 C2.67 2.99 2.34 3.98 2 5 C1.96125079 6.66621616 1.9549714 8.33394172 2 10 C0.35561095 7.04009971 -0.54561951 4.36241563 -1 1 C-0.67 0.67 -0.34 0.34 0 0 Z " fill="#48AADF" transform="translate(342,243)"/>
<path d="M0 0 C0.99 0.99 1.98 1.98 3 3 C2.67 3.99 2.34 4.98 2 6 C-0.97 5.505 -0.97 5.505 -4 5 C-2.68 4.67 -1.36 4.34 0 4 C0 2.68 0 1.36 0 0 Z " fill="#81C2DA" transform="translate(134,220)"/>
<path d="M0 0 C0.66 0.33 1.32 0.66 2 1 C1.34 2.65 0.68 4.3 0 6 C-1.32 5.34 -2.64 4.68 -4 4 C-2.68 2.68 -1.36 1.36 0 0 Z " fill="#5FAFD8" transform="translate(308,154)"/>
</svg>
