<?xml version="1.0" encoding="UTF-8"?>
<svg version="1.1" xmlns="http://www.w3.org/2000/svg" width="479" height="311">
<path d="M0 0 C29.1592938 -0.72797127 54.450134 8.16519459 75.88671875 27.91015625 C90.01261051 41.55492091 100.80727091 59.55700739 103.87890625 79.1796875 C103.87890625 81.4896875 103.87890625 83.7996875 103.87890625 86.1796875 C97.93890625 86.1796875 91.99890625 86.1796875 85.87890625 86.1796875 C85.23953125 83.7253125 84.60015625 81.2709375 83.94140625 78.7421875 C78.26421738 58.6506592 65.96973204 39.30605693 47.44140625 28.8671875 C45.60114322 27.94312939 43.74640403 27.04738758 41.87890625 26.1796875 C40.89792969 25.71691406 39.91695312 25.25414063 38.90625 24.77734375 C32.30049012 21.83671516 26.0502047 20.03829194 18.87890625 19.1796875 C17.87988281 19.045625 16.88085938 18.9115625 15.8515625 18.7734375 C-7.98058967 16.27970457 -33.07268975 21.34188773 -52.43359375 35.9296875 C-77.47310661 57.32187361 -83.88686633 90.20297111 -88.12109375 121.1796875 C-94.06109375 121.1796875 -100.00109375 121.1796875 -106.12109375 121.1796875 C-105.23460583 90.44810643 -96.59032231 57.84562178 -76.12109375 34.1796875 C-75.70214844 33.61894531 -75.28320312 33.05820312 -74.8515625 32.48046875 C-60.70249725 14.14225428 -36.26119806 3.99303695 -13.91943359 1.05908203 C-9.28678893 0.54631214 -4.65185436 0.2678164 0 0 Z " fill="#CA0C0C" transform="translate(365.12109375,8.8203125)"/>
<path d="M0 0 C5.94 0 11.88 0 18 0 C18.36351562 1.55847656 18.72703125 3.11695313 19.1015625 4.72265625 C25.71889604 32.50167099 35.24481204 56.88458955 60.125 73.1875 C80.99000478 85.47520489 107.56791064 87.46564444 131 83 C150.1829735 77.9234754 167.06094464 66.23756545 177.34375 49.04296875 C182.8132911 38.99397696 186.90218156 29.02823365 190 18 C195.94 18 201.88 18 208 18 C207.20950528 37.23537141 198.51903203 54.67036416 186 69 C185.41734375 69.71414063 184.8346875 70.42828125 184.234375 71.1640625 C182.87509242 72.82027575 181.44468273 74.41772844 180 76 C179.34 76 178.68 76 178 76 C178 76.66 178 77.32 178 78 C154.38505253 98.28775556 126.92782771 104.95101143 96.3984375 102.68359375 C68.81107385 100.26966281 43.98078759 89.41079433 26 68 C11.64405949 49.68432723 0 23.51361533 0 0 Z " fill="#CA0D0C" transform="translate(261,198)"/>
<path d="M0 0 C14 0 14 0 17.08007812 2.578125 C18.0982666 4.31445312 18.0982666 4.31445312 19.03125 6.25 C19.82756409 7.64243983 20.62722201 9.03297113 21.4296875 10.421875 C22.04505371 11.54045898 22.04505371 11.54045898 22.67285156 12.68164062 C25.01661477 16.77589658 27.73387638 20.61574947 30.40625 24.5 C31.56272401 26.20860347 32.717637 27.91826442 33.87109375 29.62890625 C34.4626123 30.50434082 35.05413086 31.37977539 35.66357422 32.28173828 C47.20147363 49.3600382 58.6838815 66.47391555 70.08398438 83.64453125 C71.0765964 85.13817139 72.06943122 86.6316635 73.0625 88.125 C73.53876831 88.84139648 74.01503662 89.55779297 74.5057373 90.29589844 C78.93201754 96.93476034 83.44560253 103.51323518 87.98852539 110.07275391 C88.51309326 110.83378418 89.03766113 111.59481445 89.578125 112.37890625 C90.04637695 113.0551001 90.51462891 113.73129395 90.99707031 114.42797852 C92 116 92 116 92 117 C85.23489593 118.35988894 78.67172904 119.2354259 72 117 C66.71403127 113.02957376 63.75547187 106.60917283 60.54101562 100.97264099 C55.55577343 92.31847896 49.7672824 84.16946388 44.13937378 75.92666626 C41.00613089 71.32896703 37.89929094 66.71356886 34.79296875 62.09765625 C34.20941116 61.23099838 33.62585358 60.36434052 33.02461243 59.47142029 C29.40137914 54.088469 25.78227724 48.70277556 22.17578125 43.30859375 C21.55463692 42.3819265 21.55463692 42.3819265 20.92094421 41.4365387 C18.11714537 37.23429073 18.11714537 37.23429073 17 35 C16.67 62.06 16.34 89.12 16 117 C10.72 117 5.44 117 0 117 C0 78.39 0 39.78 0 0 Z " fill="#CA0B0B" transform="translate(10,13)"/>
<path d="M0 0 C2.95163774 -0.41292341 5.84550429 -0.70308725 8.8125 -0.9375 C9.62654297 -1.06318359 10.44058594 -1.18886719 11.27929688 -1.31835938 C14.36194855 -1.49969183 16.15508041 -1.25205959 19 0 C22.74929965 3.87202175 25.60905602 8.1659361 28.51303101 12.69210815 C30.03746785 15.05815303 31.60731929 17.3874937 33.19262695 19.71313477 C36.00872534 23.85312749 38.78818444 28.0160301 41.55371094 32.18994141 C43.25873216 34.76317867 44.96876282 37.33302873 46.6796875 39.90234375 C47.79195573 41.57532869 48.90394474 43.2484993 50.015625 44.921875 C50.51370667 45.67112244 51.01178833 46.42036987 51.52496338 47.19232178 C55.42674113 53.08367367 59.20434939 59.03540619 63 65 C63.33 43.55 63.66 22.1 64 0 C69.28 0 74.56 0 80 0 C80 32.67 80 65.34 80 99 C66 99 66 99 62.2265625 95.3984375 C61.11603469 93.62034911 60.04400954 91.81794236 59 90 C57.91367069 88.38778514 56.82658893 86.77601781 55.7258606 85.17359924 C54.03015523 82.69222982 52.37970664 80.1817843 50.72540283 77.67269897 C48.34057311 74.05643481 45.94323883 70.44847077 43.546875 66.83984375 C43.03303253 66.06556534 42.51919006 65.29128693 41.98977661 64.49354553 C35.25473966 54.35577372 28.43736694 44.27338978 21.625 34.1875 C20.38329608 32.34912427 19.14159676 30.51074543 17.89990234 28.67236328 C17.30621857 27.79344421 16.71253479 26.91452515 16.1008606 26.00897217 C14.40747797 23.50078893 12.71577209 20.99148238 11.02441406 18.48193359 C9.14836906 15.69847857 7.26555588 12.91992229 5.37402344 10.14697266 C4.2723584 8.52154541 4.2723584 8.52154541 3.1484375 6.86328125 C2.52888184 5.95489502 1.90932617 5.04650879 1.27099609 4.1105957 C0 2 0 2 0 0 Z " fill="#CB0505" transform="translate(129,198)"/>
<path d="M0 0 C5.28 0 10.56 0 16 0 C16 38.61 16 77.22 16 117 C10.72 117 5.44 117 0 117 C0 78.39 0 39.78 0 0 Z " fill="#CC0403" transform="translate(193,13)"/>
<path d="M0 0 C5.28 0 10.56 0 16 0 C16 32.67 16 65.34 16 99 C10.72 99 5.44 99 0 99 C0 66.33 0 33.66 0 0 Z " fill="#CA0504" transform="translate(10,198)"/>
<path d="M0 0 C2.95163774 -0.41292341 5.84550429 -0.70308725 8.8125 -0.9375 C9.62654297 -1.06318359 10.44058594 -1.18886719 11.27929688 -1.31835938 C14.36156529 -1.49966928 16.15534845 -1.2515308 19 0 C22.74932792 3.8690133 25.60745806 8.16098265 28.50979614 12.68563843 C30.04125247 15.06406716 31.61759858 17.40649478 33.20874023 19.74536133 C36.61498416 24.76344748 39.96591952 29.81700733 43.3125 34.875 C44.46386165 36.60959479 45.61555299 38.34397079 46.76757812 40.078125 C52.29086937 48.39463472 52.29086937 48.39463472 54.52603149 51.79632568 C55.57340894 53.36221991 56.64601128 54.9113704 57.73544312 56.44830322 C58.29478546 57.24669617 58.85412781 58.04508911 59.43041992 58.86767578 C59.94577805 59.58803009 60.46113617 60.3083844 60.99211121 61.05056763 C61.32471451 61.69388031 61.65731781 62.33719299 62 63 C61.67 63.99 61.34 64.98 61 66 C54.25 67.125 54.25 67.125 52 66 C52 67.32 52 68.64 52 70 C51.34 70 50.68 70 50 70 C50 71.32 50 72.64 50 74 C50.99 74.33 51.98 74.66 53 75 C56.2946463 79.19318621 57.7790076 82.91253168 59 88 C56.12346081 85.27149781 53.86365532 82.52729229 51.69140625 79.21484375 C51.04091309 78.23008057 50.39041992 77.24531738 49.72021484 76.23071289 C49.00816895 75.14395264 48.29612305 74.05719238 47.5625 72.9375 C45.96502438 70.5163841 44.36345001 68.09798952 42.76171875 65.6796875 C42.32382019 65.01777908 41.88592163 64.35587067 41.43475342 63.67390442 C34.97813536 53.92771252 28.41884436 44.25021978 21.875 34.5625 C20.61787637 32.70111991 19.3607955 30.83971094 18.10375977 28.97827148 C17.50026199 28.0846138 16.89676422 27.19095612 16.27497864 26.2702179 C14.54502582 23.70718938 12.81677213 21.1430227 11.08886719 18.57861328 C9.18559484 15.75406138 7.27564584 12.93435489 5.35644531 10.12060547 C4.62264648 9.0379541 3.88884766 7.95530273 3.1328125 6.83984375 C2.5155127 5.93484131 1.89821289 5.02983887 1.26220703 4.09741211 C0 2 0 2 0 0 Z " fill="#CB100F" transform="translate(129,198)"/>
<path d="M0 0 C10 0 10 0 12.62890625 2.16796875 C13.58603516 3.66263672 13.58603516 3.66263672 14.5625 5.1875 C15.284375 6.26902344 16.00625 7.35054687 16.75 8.46484375 C17.11351563 9.03960449 17.47703125 9.61436523 17.8515625 10.20654297 C19.40672119 12.63515601 21.06477764 14.98563845 22.7265625 17.34204102 C24.50424743 19.88089477 26.24885316 22.44276969 28 25 C28.33 16.75 28.66 8.5 29 0 C32.3 0 35.6 0 39 0 C39 14.85 39 29.7 39 45 C30 45 30 45 26.99609375 42.140625 C26.11202225 40.86481924 25.26019658 39.56621925 24.4375 38.25 C23.98205811 37.57638428 23.52661621 36.90276855 23.05737305 36.20874023 C21.67709577 34.1561008 20.3387896 32.07985194 19 30 C18.17817054 28.77485948 17.35285001 27.55205086 16.5234375 26.33203125 C14.65684892 23.57172269 12.82446345 20.78833093 11 18 C10.67 26.91 10.34 35.82 10 45 C6.7 45 3.4 45 0 45 C0 30.15 0 15.3 0 0 Z " fill="#1A1A1A" transform="translate(57,139)"/>
<path d="M0 0 C6.001875 -0.0928125 6.001875 -0.0928125 12.125 -0.1875 C13.37555176 -0.21481201 14.62610352 -0.24212402 15.91455078 -0.27026367 C26.40939193 -0.34888621 26.40939193 -0.34888621 31 3 C34.40411483 6.52099431 34.72520128 9.7961606 35.06640625 14.53125 C34.91448471 20.17915658 31.83748422 23.26580211 28 27 C28.5053125 28.13179687 29.010625 29.26359375 29.53125 30.4296875 C30.18769289 31.91137289 30.84393237 33.39314841 31.5 34.875 C31.83386719 35.62136719 32.16773438 36.36773437 32.51171875 37.13671875 C32.82753906 37.85214844 33.14335937 38.56757813 33.46875 39.3046875 C33.76201172 39.96452637 34.05527344 40.62436523 34.35742188 41.30419922 C35 43 35 43 35 45 C31.37 45 27.74 45 24 45 C22.99580363 42.5433053 21.99649499 40.08481647 21 37.625 C20.57074219 36.57699219 20.57074219 36.57699219 20.1328125 35.5078125 C18 30.2265625 18 30.2265625 18 28 C15.36 28 12.72 28 10 28 C10.01160156 29.14339844 10.02320313 30.28679687 10.03515625 31.46484375 C10.04453288 32.95572754 10.05363321 34.44661309 10.0625 35.9375 C10.07087891 36.69224609 10.07925781 37.44699219 10.08789062 38.22460938 C10.09652441 40.14994313 10.05224333 42.07535581 10 44 C9.505 44.495 9.505 44.495 9 45 C6.03 45 3.06 45 0 45 C0 30.15 0 15.3 0 0 Z M10 8 C10 11.96 10 15.92 10 20 C17.41871538 20.7779368 17.41871538 20.7779368 23.8125 17.875 C25.30848028 14.99928854 25.30848028 14.99928854 24.375 11.75 C23.29166667 8.89583333 23.29166667 8.89583333 21 8 C17.32984725 7.8622315 13.67388652 7.95728039 10 8 Z " fill="#1A1A1A" transform="translate(330,139)"/>
<path d="M0 0 C10.23 0 20.46 0 31 0 C31 2.64 31 5.28 31 8 C24.07 8 17.14 8 10 8 C10 11.3 10 14.6 10 18 C16.27 18 22.54 18 29 18 C29 20.64 29 23.28 29 26 C28 27 28 27 26.23413086 27.11352539 C25.48526611 27.10828857 24.73640137 27.10305176 23.96484375 27.09765625 C23.15595703 27.09443359 22.34707031 27.09121094 21.51367188 27.08789062 C20.66353516 27.07951172 19.81339844 27.07113281 18.9375 27.0625 C18.08349609 27.05798828 17.22949219 27.05347656 16.34960938 27.04882812 C14.23304337 27.03700373 12.11651315 27.01906769 10 27 C10 30.3 10 33.6 10 37 C17.26 37 24.52 37 32 37 C32 39.64 32 42.28 32 45 C21.44 45 10.88 45 0 45 C0 30.15 0 15.3 0 0 Z " fill="#181818" transform="translate(373,139)"/>
<path d="M0 0 C10.23 0 20.46 0 31 0 C31 2.64 31 5.28 31 8 C24.07 8 17.14 8 10 8 C10 11.3 10 14.6 10 18 C15.94 18 21.88 18 28 18 C28 20.97 28 23.94 28 27 C22.06 27 16.12 27 10 27 C10 30.3 10 33.6 10 37 C17.26 37 24.52 37 32 37 C32 39.64 32 42.28 32 45 C21.44 45 10.88 45 0 45 C0 30.15 0 15.3 0 0 Z " fill="#161616" transform="translate(106,139)"/>
<path d="M0 0 C4.39722707 2.50463041 6.74691512 6.17914531 8.13671875 10.9140625 C8.36359375 11.9453125 8.59046875 12.9765625 8.82421875 14.0390625 C7.82421875 15.0390625 7.82421875 15.0390625 5.5390625 15.13671875 C4.62253906 15.12511719 3.70601563 15.11351562 2.76171875 15.1015625 C1.84261719 15.09253906 0.92351562 15.08351562 -0.0234375 15.07421875 C-0.73371094 15.06261719 -1.44398438 15.05101562 -2.17578125 15.0390625 C-2.65015625 14.0696875 -3.12453125 13.1003125 -3.61328125 12.1015625 C-4.87772072 9.23428813 -4.87772072 9.23428813 -6.17578125 8.0390625 C-11.78020149 7.44288459 -11.78020149 7.44288459 -16.61328125 9.7890625 C-20.13224488 14.85637012 -19.6459065 21.09533607 -19.17578125 27.0390625 C-18.3360998 30.52127085 -17.19156119 33.19841703 -14.36328125 35.5390625 C-11.28495061 36.24268093 -9.19573944 35.93862451 -6.17578125 35.0390625 C-3.95004372 32.7365754 -3.19469621 31.09580738 -2.17578125 28.0390625 C1.45421875 28.0390625 5.08421875 28.0390625 8.82421875 28.0390625 C6.39498656 39.06403937 6.39498656 39.06403937 2.2734375 42.23046875 C-3.58218531 45.7098968 -9.52715512 45.79031969 -16.17578125 45.0390625 C-21.65387422 43.31447768 -25.07404696 39.76028637 -28.17578125 35.0390625 C-32.36109682 26.44897661 -32.09339241 18.18302052 -29.0703125 9.265625 C-26.98097614 4.06509344 -24.45368904 1.95177743 -19.42578125 -0.2734375 C-12.60829945 -2.73252918 -6.76465366 -2.84407836 0 0 Z " fill="#202020" transform="translate(269.17578125,139.9609375)"/>
<path d="M0 0 C4.15288427 -0.61372674 7.87270706 -0.86564946 12 0 C15.11317438 2.93755942 16.95905086 6.27251804 19 10 C19.66 10.66 20.32 11.32 21 12 C21.49371094 11.21753906 21.98742187 10.43507812 22.49609375 9.62890625 C23.45708984 8.11103516 23.45708984 8.11103516 24.4375 6.5625 C25.07558594 5.55316406 25.71367187 4.54382813 26.37109375 3.50390625 C28 1 28 1 29 0 C30.68608966 -0.07205511 32.37500659 -0.08386068 34.0625 -0.0625 C34.98160156 -0.05347656 35.90070313 -0.04445312 36.84765625 -0.03515625 C37.55792969 -0.02355469 38.26820313 -0.01195312 39 0 C37.17690593 5.51167975 33.71236642 9.86437488 30.28125 14.47265625 C29.60835937 15.42978516 29.60835937 15.42978516 28.921875 16.40625 C28.50518555 16.97666016 28.08849609 17.54707031 27.65917969 18.13476562 C26.76738332 20.08399417 26.76738332 20.08399417 27.70361328 22.45239258 C28.9441362 24.89021868 30.27025441 27.10344491 31.8203125 29.35546875 C32.35527344 30.14244141 32.89023438 30.92941406 33.44140625 31.74023438 C33.99699219 32.54783203 34.55257812 33.35542969 35.125 34.1875 C36.23597017 35.80310994 37.34295861 37.42146756 38.4453125 39.04296875 C38.93531738 39.75477295 39.42532227 40.46657715 39.93017578 41.19995117 C41 43 41 43 41 45 C36.84779195 45.6136268 33.12731699 45.86157742 29 45 C25.88728453 42.06561719 24.08844535 38.69404679 22 35 C20.42546223 33.23520964 20.42546223 33.23520964 19 32 C18.32517578 33.40765625 18.32517578 33.40765625 17.63671875 34.84375 C15.69826127 38.57978869 13.77188125 41.80565474 11 45 C7.11759197 46.12452448 3.92269416 45.84366768 0 45 C1.10105045 41.61628397 2.67551872 38.88089083 4.671875 35.96875 C5.17074219 35.24042969 5.66960937 34.51210937 6.18359375 33.76171875 C7.2329552 32.24655596 8.29300398 30.7387426 9.36328125 29.23828125 C12.29070309 25.20727787 12.29070309 25.20727787 12.6796875 20.48046875 C12.12539062 19.66191406 11.57109375 18.84335938 11 18 C10.59845703 17.39043457 10.19691406 16.78086914 9.78320312 16.15283203 C8.35094728 14.0110136 6.87095629 11.91025597 5.375 9.8125 C4.35773979 8.38452098 3.344501 6.95366585 2.3359375 5.51953125 C1.88782715 4.89151611 1.4397168 4.26350098 0.97802734 3.61645508 C0 2 0 2 0 0 Z " fill="#212121" transform="translate(142,139)"/>
<path d="M0 0 C3.63 0 7.26 0 11 0 C14.34242837 8.17759173 17.4104399 16.44249896 20.42871094 24.74365234 C21.25888188 27.0244014 22.09420575 29.30322309 22.9296875 31.58203125 C23.45864651 33.03374009 23.98730372 34.48555895 24.515625 35.9375 C24.8905307 36.9577124 24.8905307 36.9577124 25.27301025 37.99853516 C27 42.77112877 27 42.77112877 27 45 C23.7 45 20.4 45 17 45 C14 38.375 14 38.375 14 35 C8.72 35 3.44 35 -2 35 C-2.99 38.3 -3.98 41.6 -5 45 C-8.3 45 -11.6 45 -15 45 C-13.74284831 38.86541801 -12.13104693 33.11414589 -9.9609375 27.24609375 C-9.67521881 26.45977066 -9.38950012 25.67344757 -9.09512329 24.86329651 C-8.19365381 22.38608279 -7.28448144 19.91178191 -6.375 17.4375 C-5.75729778 15.74432832 -5.14010564 14.05097045 -4.5234375 12.35742188 C-3.02150534 8.23610829 -1.51266479 4.1173858 0 0 Z M5 12 C4.32739649 13.76858691 3.66211605 15.53996016 3 17.3125 C2.62875 18.29863281 2.2575 19.28476563 1.875 20.30078125 C0.84581498 23.00271656 0.84581498 23.00271656 1 26 C4.3 26 7.6 26 11 26 C10.3844197 23.85144546 9.75726569 21.70620375 9.125 19.5625 C8.77695312 18.36753906 8.42890625 17.17257813 8.0703125 15.94140625 C7.3391709 12.88308969 7.3391709 12.88308969 5 12 Z " fill="#1D1D1D" transform="translate(297,139)"/>
<path d="M0 0 C12.21 0 24.42 0 37 0 C37 2.97 37 5.94 37 9 C32.71 9 28.42 9 24 9 C24 20.88 24 32.76 24 45 C20.7 45 17.4 45 14 45 C14 33.12 14 21.24 14 9 C9.38 9 4.76 9 0 9 C0 6.03 0 3.06 0 0 Z " fill="#1B1B1B" transform="translate(185,139)"/>
<path d="M0 0 C5.28 0 10.56 0 16 0 C16 38.61 16 77.22 16 117 C10.72 117 5.44 117 0 117 C0 78.39 0 39.78 0 0 Z M2 2 C2 39.29 2 76.58 2 115 C5.96 115 9.92 115 14 115 C14 77.71 14 40.42 14 2 C10.04 2 6.08 2 2 2 Z " fill="#BF3D3D" transform="translate(193,13)"/>
<path d="M0 0 C5.28 0 10.56 0 16 0 C16 32.67 16 65.34 16 99 C11.38 99 6.76 99 2 99 C2 98.34 2 97.68 2 97 C5.96 97 9.92 97 14 97 C14 65.32 14 33.64 14 1 C10.04 1 6.08 1 2 1 C2 22.78 2 44.56 2 67 C0.68 67 -0.64 67 -2 67 C-1.505 66.01 -1.505 66.01 -1 65 C-0.87951849 62.93776648 -0.82259073 60.87171371 -0.79467773 58.80615234 C-0.77473251 57.50495453 -0.75478729 56.20375671 -0.73423767 54.86312866 C-0.71725327 53.4373995 -0.70037447 52.01166907 -0.68359375 50.5859375 C-0.66302479 49.13147387 -0.64202834 47.67701623 -0.62062073 46.2225647 C-0.56539396 42.39213912 -0.5159874 38.56165955 -0.46777344 34.73114014 C-0.4175628 30.8233153 -0.36187446 26.915569 -0.30664062 23.0078125 C-0.19905164 15.33860628 -0.09811448 7.66933436 0 0 Z " fill="#BF3E3F" transform="translate(193,198)"/>
<path d="M0 0 C0 0.66 0 1.32 0 2 C-0.66 2 -1.32 2 -2 2 C-2.103125 2.598125 -2.20625 3.19625 -2.3125 3.8125 C-3.08876455 6.28243264 -4.07088921 7.32251235 -6 9 C-5.67 9.66 -5.34 10.32 -5 11 C-5.27942455 12.67654729 -5.60828247 14.34608154 -6 16 C-5.34 16.33 -4.68 16.66 -4 17 C-4 17.66 -4 18.32 -4 19 C-5.65 19 -7.3 19 -9 19 C-8.731875 19.721875 -8.46375 20.44375 -8.1875 21.1875 C-8 24 -8 24 -9.9375 26.25 C-10.40414063 26.66894531 -10.87078125 27.08789062 -11.3515625 27.51953125 C-21.00421308 36.18861791 -27.08798632 47.12048385 -32 59 C-32.33 59 -32.66 59 -33 59 C-33.1254878 53.72951245 -32.67120896 49.01362687 -31 44 C-30.01 44 -29.02 44 -28 44 C-28 42.68 -28 41.36 -28 40 C-27.01 40 -26.02 40 -25 40 C-24.505 37.03 -24.505 37.03 -24 34 C-23.34 34 -22.68 34 -22 34 C-21.67 33.34 -21.34 32.68 -21 32 C-20.34 32 -19.68 32 -19 32 C-19.33 31.01 -19.66 30.02 -20 29 C-19 28 -19 28 -16.4375 27.9375 C-15.2309375 27.9684375 -15.2309375 27.9684375 -14 28 C-14.33 27.113125 -14.66 26.22625 -15 25.3125 C-15.91560832 22.27954746 -16.1785993 20.12548782 -16 17 C-16 16.67 -16 16.34 -16 16 C-19.3 16 -22.6 16 -26 16 C-10.32469304 -0.72032742 -10.32469304 -0.72032742 0 0 Z " fill="#C90605" transform="translate(320,22)"/>
<path d="M0 0 C4.62 0 9.24 0 14 0 C14.33 0.99 14.66 1.98 15 3 C10.71 2.67 6.42 2.34 2 2 C2.33 39.29 2.66 76.58 3 115 C6.96 115.33 10.92 115.66 15 116 C15 88.28 15 60.56 15 32 C15.66 32 16.32 32 17 32 C16.67 60.05 16.34 88.1 16 117 C10.72 117 5.44 117 0 117 C0 78.39 0 39.78 0 0 Z " fill="#D04F52" transform="translate(10,13)"/>
<path d="M0 0 C5.28 0 10.56 0 16 0 C16 32.67 16 65.34 16 99 C10.72 99 5.44 99 0 99 C0 66.33 0 33.66 0 0 Z M2 1 C2 32.68 2 64.36 2 97 C6.29 97 10.58 97 15 97 C15 65.32 15 33.64 15 1 C10.71 1 6.42 1 2 1 Z " fill="#CC494C" transform="translate(10,198)"/>
<path d="M0 0 C0.66 0.33 1.32 0.66 2 1 C1.67 1.556875 1.34 2.11375 1 2.6875 C-0.68586362 6.58605961 -0.18313217 10.00692892 1 14 C-0.65 14.33 -2.3 14.66 -4 15 C-4 15.99 -4 16.98 -4 18 C-4.66 18 -5.32 18 -6 18 C-6.33 18.99 -6.66 19.98 -7 21 C-7.66 20.67 -8.32 20.34 -9 20 C-9.33 21.98 -9.66 23.96 -10 26 C-13.66881155 25.29445932 -16.70450534 23.72264494 -20 22 C-20.66 22.66 -21.32 23.32 -22 24 C-22.99 23.67 -23.98 23.34 -25 23 C-23.68 20.69 -22.36 18.38 -21 16 C-20.01 16 -19.02 16 -18 16 C-17.731875 15.443125 -17.46375 14.88625 -17.1875 14.3125 C-16 12 -16 12 -14.5 9.5625 C-12.93013079 7.03757254 -12.93013079 7.03757254 -11.9375 4.25 C-11 2 -11 2 -9 1 C-7.64655763 0.95571559 -6.2910961 0.96069412 -4.9375 1 C-3.638125 1 -2.33875 1 -1 1 C-0.67 0.67 -0.34 0.34 0 0 Z " fill="#CB0404" transform="translate(305,36)"/>
<path d="M0 0 C0.66 0.66 1.32 1.32 2 2 C2.70125 2.474375 3.4025 2.94875 4.125 3.4375 C4.74375 3.953125 5.3625 4.46875 6 5 C6 5.99 6 6.98 6 8 C5.01 8 4.02 8 3 8 C2.67 8.66 2.34 9.32 2 10 C1.34 10 0.68 10 0 10 C-0.33 11.65 -0.66 13.3 -1 15 C-3.64 14.34 -6.28 13.68 -9 13 C-9 12.01 -9 11.02 -9 10 C-11.97 9.505 -11.97 9.505 -15 9 C-14 6 -14 6 -12.29296875 4.90234375 C-11.59816406 4.58394531 -10.90335937 4.26554687 -10.1875 3.9375 C-9.15689453 3.45603516 -9.15689453 3.45603516 -8.10546875 2.96484375 C-7.41066406 2.64644531 -6.71585937 2.32804687 -6 2 C-4.94232422 1.44505859 -4.94232422 1.44505859 -3.86328125 0.87890625 C-2 0 -2 0 0 0 Z " fill="#CA0403" transform="translate(416,20)"/>
<path d="M0 0 C-0.66 0.639375 -1.32 1.27875 -2 1.9375 C-3.0033796 2.95501171 -4.00289552 3.97633826 -5 5 C-5.60457031 5.6084375 -6.20914062 6.216875 -6.83203125 6.84375 C-14.56116085 15.01497971 -19.72020052 24.64946956 -24 35 C-24.33 35 -24.66 35 -25 35 C-25.1254878 29.72951245 -24.67120896 25.01362687 -23 20 C-22.01 20 -21.02 20 -20 20 C-20 18.68 -20 17.36 -20 16 C-19.01 16 -18.02 16 -17 16 C-16.67 14.02 -16.34 12.04 -16 10 C-15.34 10 -14.68 10 -14 10 C-13.67 9.34 -13.34 8.68 -13 8 C-12.34 8 -11.68 8 -11 8 C-11.33 7.01 -11.66 6.02 -12 5 C-11 4 -11 4 -8.4375 3.9375 C-7.2309375 3.9684375 -7.2309375 3.9684375 -6 4 C-6 2.68 -6 1.36 -6 0 C-3.50907189 -1.24546405 -2.58919267 -0.7767578 0 0 Z " fill="#C83335" transform="translate(312,46)"/>
<path d="M0 0 C0 0.33 0 0.66 0 1 C-2.0839403 0.88556397 -4.16716493 0.75804453 -6.25 0.625 C-7.41015625 0.55539063 -8.5703125 0.48578125 -9.765625 0.4140625 C-12.80987164 0.0243401 -14.3508584 -0.6118498 -17 -2 C-22.13031139 -3.12740542 -27.11462057 -3.12958662 -32.3359375 -3.09765625 C-33.65496567 -3.09553383 -33.65496567 -3.09553383 -35.00064087 -3.09336853 C-37.79212942 -3.08779877 -40.58353594 -3.0752519 -43.375 -3.0625 C-45.27473842 -3.05748109 -47.1744781 -3.05291887 -49.07421875 -3.04882812 C-53.71617714 -3.03783925 -58.35807469 -3.02059557 -63 -3 C-63 -3.33 -63 -3.66 -63 -4 C-41.45687566 -6.68092214 -20.80335193 -6.99101223 0 0 Z " fill="#D46F6D" transform="translate(407,15)"/>
<path d="M0 0 C0.33 0 0.66 0 1 0 C1.44173451 8.39295578 -0.65689211 13.45038388 -6 20 C-6.68753301 21.65816784 -7.35561283 23.32459336 -8 25 C-9.5 27.3125 -9.5 27.3125 -11 29 C-11.66 29 -12.32 29 -13 29 C-13 29.99 -13 30.98 -13 32 C-15.475 32.495 -15.475 32.495 -18 33 C-17.4416748 32.30124756 -17.4416748 32.30124756 -16.87207031 31.58837891 C-12.87934113 26.45036023 -9.72196178 21.15381458 -6.75 15.375 C-6.1003125 14.14523438 -6.1003125 14.14523438 -5.4375 12.890625 C-3.23939829 8.67081245 -1.33636694 4.58819317 0 0 Z " fill="#CA4E4F" transform="translate(448,226)"/>
<path d="M0 0 C0.99 0 1.98 0 3 0 C3.66 0.66 4.32 1.32 5 2 C7.57061311 2.64767793 7.57061311 2.64767793 10 3 C10.33 4.98 10.66 6.96 11 9 C9.25008666 9.02715383 7.50005055 9.04646551 5.75 9.0625 C4.28820312 9.07990234 4.28820312 9.07990234 2.796875 9.09765625 C0.34241322 9.01195577 -1.66168914 8.70706066 -4 8 C-4 7.34 -4 6.68 -4 6 C-3 5 -2 4 -1 3 C-0.67 2.01 -0.34 1.02 0 0 Z " fill="#C80506" transform="translate(87,120)"/>
<path d="M0 0 C1.22589844 0.01353516 1.22589844 0.01353516 2.4765625 0.02734375 C3.10304688 0.03894531 3.72953125 0.05054688 4.375 0.0625 C-7.34668368 7.87695579 -25.1282221 6.19353668 -38.625 6.0625 C-38.625 5.7325 -38.625 5.4025 -38.625 5.0625 C-34.005 5.0625 -29.385 5.0625 -24.625 5.0625 C-24.625 4.4025 -24.625 3.7425 -24.625 3.0625 C-22.71074219 2.86333984 -22.71074219 2.86333984 -20.7578125 2.66015625 C-19.08852004 2.48197335 -17.41925036 2.30357686 -15.75 2.125 C-14.90824219 2.03798828 -14.06648438 1.95097656 -13.19921875 1.86132812 C-11.99072266 1.73081055 -11.99072266 1.73081055 -10.7578125 1.59765625 C-10.01418457 1.519104 -9.27055664 1.44055176 -8.50439453 1.35961914 C-5.38752227 0.86686342 -3.30075729 -0.04715368 0 0 Z " fill="#D66769" transform="translate(400.625,294.9375)"/>
<path d="M0 0 C1 2 1 2 0.375 4.75 C-1.28062274 8.66329011 -3.07036833 10.92745947 -6 14 C-6.99 14.33 -7.98 14.66 -9 15 C-10.46293963 17.31869204 -10.46293963 17.31869204 -11.6875 20.0625 C-12.12449219 20.98160156 -12.56148438 21.90070312 -13.01171875 22.84765625 C-13.50091797 23.91306641 -13.50091797 23.91306641 -14 25 C-14.66 25 -15.32 25 -16 25 C-16.33 26.65 -16.66 28.3 -17 30 C-17.66 30 -18.32 30 -19 30 C-17.53253463 24.79495709 -15.18384299 20.64551912 -12.3125 16.125 C-11.86986816 15.42117187 -11.42723633 14.71734375 -10.97119141 13.9921875 C-7.73097545 8.92971627 -4.24670222 4.27482608 0 0 Z " fill="#CD5F62" transform="translate(293,38)"/>
<path d="M0 0 C1.78277344 0.2165625 1.78277344 0.2165625 3.6015625 0.4375 C16.44245566 1.90585325 29.08328439 2.24084524 42 2 C41.67 2.66 41.34 3.32 41 4 C28.79 4 16.58 4 4 4 C4 3.34 4 2.68 4 2 C2.68 1.67 1.36 1.34 0 1 C0 0.67 0 0.34 0 0 Z " fill="#C84A4A" transform="translate(344,281)"/>
<path d="M0 0 C0.66 0 1.32 0 2 0 C1.82984375 0.66902344 1.6596875 1.33804688 1.484375 2.02734375 C-0.09828135 8.29904047 -1.63222713 14.58138742 -3.125 20.875 C-3.29547852 21.587771 -3.46595703 22.30054199 -3.64160156 23.03491211 C-4.57846464 27.00633614 -5.38048335 30.96682017 -6 35 C-6.33 35 -6.66 35 -7 35 C-7.28125 18 -7.28125 18 -4 11 C-3.34 11 -2.68 11 -2 11 C-2 8.36 -2 5.72 -2 3 C-1.34 3 -0.68 3 0 3 C0 2.01 0 1.02 0 0 Z " fill="#CC4E50" transform="translate(285,81)"/>
<path d="M0 0 C0.66 0.33 1.32 0.66 2 1 C1.67 1.99 1.34 2.98 1 4 C-1.0625 4.6875 -1.0625 4.6875 -3 5 C-2.67 5.66 -2.34 6.32 -2 7 C-3.65 7 -5.3 7 -7 7 C-7 7.66 -7 8.32 -7 9 C-7.97850195 10.02104551 -8.97980427 11.0206121 -10 12 C-10.33 12.66 -10.66 13.32 -11 14 C-12.32 13.67 -13.64 13.34 -15 13 C-15 13.66 -15 14.32 -15 15 C-16.65 15.33 -18.3 15.66 -20 16 C-14.24882663 9.86541507 -7.49621188 3.87473114 0 0 Z " fill="#CA4449" transform="translate(314,22)"/>
<path d="M0 0 C4.54328213 1.29999518 7.84454339 3.05296901 11.625 5.875 C12.54539062 6.55304687 13.46578125 7.23109375 14.4140625 7.9296875 C16.78526571 9.82808282 18.90402675 11.80562425 21 14 C18.525 13.505 18.525 13.505 16 13 C16 12.34 16 11.68 16 11 C15.443125 10.87625 14.88625 10.7525 14.3125 10.625 C11.77885636 9.94023145 9.42078968 9.00866237 7 8 C7 8.66 7 9.32 7 10 C6.01 10 5.02 10 4 10 C4 9.34 4 8.68 4 8 C4.66 8 5.32 8 6 8 C6 7.01 6 6.02 6 5 C5.195625 4.731875 4.39125 4.46375 3.5625 4.1875 C2.716875 3.795625 1.87125 3.40375 1 3 C0.67 2.01 0.34 1.02 0 0 Z " fill="#C93A3E" transform="translate(416,20)"/>
<path d="M0 0 C-3.16240582 2.10827055 -4.50657469 2.33817465 -8.1875 2.625 C-9.53908203 2.73714844 -9.53908203 2.73714844 -10.91796875 2.8515625 C-11.94857422 2.92503906 -11.94857422 2.92503906 -13 3 C-13.33 4.32 -13.66 5.64 -14 7 C-15.58086048 7.36504603 -17.16483907 7.71660506 -18.75 8.0625 C-19.63171875 8.25972656 -20.5134375 8.45695312 -21.421875 8.66015625 C-23.98679028 8.99825872 -25.57091639 8.81158635 -28 8 C-6.61740761 -2.45561632 -6.61740761 -2.45561632 0 0 Z " fill="#C93A3B" transform="translate(344,13)"/>
<path d="M0 0 C4.66666667 4.66666667 9.33333333 9.33333333 14 14 C13.01 14.66 12.02 15.32 11 16 C11 15.34 11 14.68 11 14 C10.01 13.67 9.02 13.34 8 13 C8 12.01 8 11.02 8 10 C6.35 9.67 4.7 9.34 3 9 C2.67 9.99 2.34 10.98 2 12 C2 10.68 2 9.36 2 8 C1.67 7.34 1.34 6.68 1 6 C0 4 0 4 0 0 Z " fill="#CB4040" transform="translate(298,251)"/>
<path d="M0 0 C0.66 0.66 1.32 1.32 2 2 C1.01 3.485 1.01 3.485 0 5 C-0.02749478 7.06910593 -0.02749478 7.06910593 0.375 9.1875 C0.58125 10.445625 0.7875 11.70375 1 13 C0.01 13.495 0.01 13.495 -1 14 C-1.99 13.01 -2.98 12.02 -4 11 C-3.67 10.01 -3.34 9.02 -3 8 C-3.99 7.67 -4.98 7.34 -6 7 C-4.6875 4.0625 -4.6875 4.0625 -3 1 C-2.01 0.67 -1.02 0.34 0 0 Z " fill="#C60607" transform="translate(55,71)"/>
<path d="M0 0 C3.12915801 2.6862618 4.7642676 5.95391929 6.6875 9.5625 C7.62142578 11.29693359 7.62142578 11.29693359 8.57421875 13.06640625 C10 16 10 16 10 18 C9.34 18 8.68 18 8 18 C8 17.34 8 16.68 8 16 C7.01 15.67 6.02 15.34 5 15 C4.30741771 13.00882592 3.64252365 11.0078864 3 9 C2.46375 8.505 1.9275 8.01 1.375 7.5 C0 6 0 6 -0.1875 2.8125 C-0.125625 1.884375 -0.06375 0.95625 0 0 Z " fill="#CB4B4F" transform="translate(453,52)"/>
<path d="M0 0 C3.0625 0.1875 3.0625 0.1875 5.0625 2.1875 C2.50098317 3.00321218 -0.06162628 3.81516131 -2.625 4.625 C-3.7068457 4.97014648 -3.7068457 4.97014648 -4.81054688 5.32226562 C-8.49930375 6.4844767 -12.11709607 7.53192773 -15.9375 8.1875 C-15.9375 7.5275 -15.9375 6.8675 -15.9375 6.1875 C-15.08285156 5.83816406 -14.22820312 5.48882812 -13.34765625 5.12890625 C-12.24292969 4.67386719 -11.13820313 4.21882813 -10 3.75 C-8.89785156 3.29753906 -7.79570312 2.84507813 -6.66015625 2.37890625 C-1.43276299 0.09145296 -1.43276299 0.09145296 0 0 Z " fill="#CD585B" transform="translate(342.9375,26.8125)"/>
<path d="M0 0 C5.86403933 0.06636258 10.11184099 0.78618368 15.375 3.3125 C12.26815935 4.26389197 9.82994879 4.32361621 6.609375 3.97265625 C5.71992188 3.87919922 4.83046875 3.78574219 3.9140625 3.68945312 C2.99367188 3.58568359 2.07328125 3.48191406 1.125 3.375 C0.18914062 3.27509766 -0.74671875 3.17519531 -1.7109375 3.07226562 C-4.01637599 2.82525436 -6.32091548 2.57178885 -8.625 2.3125 C-5.80958597 -0.50291403 -3.92799822 0.0126167 0 0 Z " fill="#CD5A5B" transform="translate(379.625,24.6875)"/>
<path d="M0 0 C2.52588702 2.36292656 3.88820837 3.66462511 5 7 C-1.6 7 -8.2 7 -15 7 C-15.33 6.01 -15.66 5.02 -16 4 C-10.39 4.66 -4.78 5.32 1 6 C0.67 4.02 0.34 2.04 0 0 Z " fill="#CD5759" transform="translate(97,123)"/>
<path d="M0 0 C0.66 0 1.32 0 2 0 C2 1.32 2 2.64 2 4 C2.99 4.33 3.98 4.66 5 5 C8.2946463 9.19318621 9.7790076 12.91253168 11 18 C7.65707389 14.8980055 5.23755199 11.56424638 2.75 7.75 C2.04359375 6.67234375 1.3371875 5.5946875 0.609375 4.484375 C0.07828125 3.66453125 -0.4528125 2.8446875 -1 2 C-0.67 1.34 -0.34 0.68 0 0 Z " fill="#CE5756" transform="translate(177,268)"/>
<path d="M0 0 C0.66 0 1.32 0 2 0 C1.4739075 3.78786597 0.61896089 6.17152224 -2 9 C-2.66 9 -3.32 9 -4 9 C-4 9.99 -4 10.98 -4 12 C-5.65 12.33 -7.3 12.66 -9 13 C-8.60167969 12.48050781 -8.20335937 11.96101563 -7.79296875 11.42578125 C-5.45126486 8.34339243 -3.20303277 5.34805618 -1.25 2 C-0.8375 1.34 -0.425 0.68 0 0 Z " fill="#C22D2D" transform="translate(439,246)"/>
<path d="M0 0 C1.68902254 5.41693657 0.01394922 10.01434944 -2.5 14.9375 C-4 17 -4 17 -6 18 C-4.41039668 11.76559832 -2.72399099 5.83712355 0 0 Z " fill="#CD4E4F" transform="translate(273,68)"/>
<path d="M0 0 C-3.49359465 3.59634744 -7.11098131 6.83451967 -11 10 C-11.38218767 8.34385343 -11.71395102 6.67542976 -12 5 C-11 4 -11 4 -8.4375 3.9375 C-7.2309375 3.9684375 -7.2309375 3.9684375 -6 4 C-6 2.68 -6 1.36 -6 0 C-3.50907189 -1.24546405 -2.58919267 -0.7767578 0 0 Z " fill="#CA4A4C" transform="translate(312,46)"/>
<path d="M0 0 C0.33 0 0.66 0 1 0 C0.88509088 2.68826864 0.75836801 5.37513469 0.625 8.0625 C0.5940625 8.81466797 0.563125 9.56683594 0.53125 10.34179688 C0.27941541 15.18961281 -0.49168365 19.38308043 -2 24 C-2.33 24 -2.66 24 -3 24 C-3.15490223 18.26861756 -2.65244885 13.10650794 -1.5 7.5 C-1.35691406 6.77296875 -1.21382813 6.0459375 -1.06640625 5.296875 C-0.71766302 3.52990929 -0.35980277 1.76474691 0 0 Z " fill="#CB5D5B" transform="translate(263,98)"/>
<path d="M0 0 C1.65 0.33 3.3 0.66 5 1 C5 1.99 5 2.98 5 4 C4.34 4 3.68 4 3 4 C2.690625 4.61875 2.38125 5.2375 2.0625 5.875 C1.375 7.25 0.6875 8.625 0 10 C-0.99 10 -1.98 10 -3 10 C-2.01 6.7 -1.02 3.4 0 0 Z " fill="#CE0304" transform="translate(301,260)"/>
<path d="M0 0 C0.99 0.33 1.98 0.66 3 1 C1.58707905 5.8274799 -0.42974154 9.7162359 -3 14 C-3.33 14 -3.66 14 -4 14 C-4 12.02 -4 10.04 -4 8 C-3.34 8 -2.68 8 -2 8 C-2 6.68 -2 5.36 -2 4 C-1.34 4 -0.68 4 0 4 C0 2.68 0 1.36 0 0 Z " fill="#CB3F41" transform="translate(459,241)"/>
<path d="M0 0 C0 0.99 0 1.98 0 3 C2.31 3.33 4.62 3.66 7 4 C7.33 5.32 7.66 6.64 8 8 C3.25981099 6.16508812 -1.36413251 4.08058541 -6 2 C-3 0 -3 0 0 0 Z " fill="#CC4C4D" transform="translate(407,30)"/>
<path d="M0 0 C3.25524265 3.02272532 5.61820737 6.25718301 8 10 C7.67 10.66 7.34 11.32 7 12 C4.03 11.505 4.03 11.505 1 11 C1.66 10.67 2.32 10.34 3 10 C2.2575 8.63875 2.2575 8.63875 1.5 7.25 C0 4 0 4 0 0 Z " fill="#CD4C4C" transform="translate(161,218)"/>
<path d="M0 0 C3.29148243 1.13499394 3.9959869 1.99283376 5.75 5.125 C6.1625 6.07375 6.575 7.0225 7 8 C6.01 7.67 5.02 7.34 4 7 C3.34 7.66 2.68 8.32 2 9 C2 8.34 2 7.68 2 7 C1.01 6.67 0.02 6.34 -1 6 C-0.67 4.02 -0.34 2.04 0 0 Z " fill="#C92626" transform="translate(57,66)"/>
<path d="M0 0 C-4.63237481 3.08824987 -9.03342444 4.21070452 -14.5 3.625 C-15.325 3.41875 -16.15 3.2125 -17 3 C-17 2.67 -17 2.34 -17 2 C-11.16200408 0.30167391 -6.06892629 -0.25287193 0 0 Z " fill="#CF5758" transform="translate(405,295)"/>
<path d="M0 0 C0.99 0.33 1.98 0.66 3 1 C3 2.98 3 4.96 3 7 C3.66 7 4.32 7 5 7 C5 8.32 5 9.64 5 11 C5.99 11.33 6.98 11.66 8 12 C7.34 13.32 6.68 14.64 6 16 C4.99303432 13.89915791 3.9946411 11.79420511 3 9.6875 C2.443125 8.51574219 1.88625 7.34398437 1.3125 6.13671875 C0 3 0 3 0 0 Z " fill="#D05F62" transform="translate(270,233)"/>
<path d="M0 0 C6.27 0 12.54 0 19 0 C19.66 1.32 20.32 2.64 21 4 C19.68 3.67 18.36 3.34 17 3 C17 2.34 17 1.68 17 1 C16.02417969 1.0721875 15.04835937 1.144375 14.04296875 1.21875 C12.13451172 1.35796875 12.13451172 1.35796875 10.1875 1.5 C8.29064453 1.63921875 8.29064453 1.63921875 6.35546875 1.78125 C4.24021483 1.91914781 2.11974408 2 0 2 C0 1.34 0 0.68 0 0 Z " fill="#B82D2F" transform="translate(129,198)"/>
<path d="M0 0 C6.33393082 -0.34548714 11.10261508 0.70657253 17 3 C17 3.33 17 3.66 17 4 C14.91589342 3.91266027 12.83265331 3.80447722 10.75 3.6875 C9.00976562 3.60048828 9.00976562 3.60048828 7.234375 3.51171875 C3.89180362 2.98288197 2.4502943 2.26227667 0 0 Z " fill="#C64142" transform="translate(390,12)"/>
<path d="M0 0 C5.4389165 -0.21755666 9.87080814 -0.10428384 15 2 C15 2.66 15 3.32 15 4 C9.76119922 3.44854729 5.02649303 2.57077907 0 1 C0 0.67 0 0.34 0 0 Z " fill="#CB4F4F" transform="translate(329,294)"/>
<path d="M0 0 C1.93440822 2.90161233 2.51284158 4.53721622 3.1875 7.875 C3.45626953 9.13957031 3.45626953 9.13957031 3.73046875 10.4296875 C4.0200913 13.19159533 3.67706227 15.3205621 3 18 C0.06552643 15.06552643 0.53841577 11.81740544 0.375 7.875 C0.33632813 7.12089844 0.29765625 6.36679688 0.2578125 5.58984375 C0.16348969 3.72696816 0.08065338 1.86351745 0 0 Z " fill="#CB5150" transform="translate(278,198)"/>
<path d="M0 0 C2 1 4 2 6 3 C6 4.65 6 6.3 6 8 C6.99 8 7.98 8 9 8 C8.34 9.32 7.68 10.64 7 12 C5.82767315 10.3790787 4.6622923 8.75313167 3.5 7.125 C2.8503125 6.22007812 2.200625 5.31515625 1.53125 4.3828125 C0 2 0 2 0 0 Z " fill="#CB5353" transform="translate(163,249)"/>
<path d="M0 0 C1.32 0.33 2.64 0.66 4 1 C2.44148245 1.82011312 0.87798284 2.63076213 -0.6875 3.4375 C-1.55761719 3.88996094 -2.42773438 4.34242188 -3.32421875 4.80859375 C-5.90998264 5.95991928 -8.21356528 6.56320753 -11 7 C-11 6.01 -11 5.02 -11 4 C-7.12315913 2.80712589 -4.08378077 2 0 2 C0 1.34 0 0.68 0 0 Z " fill="#CA5154" transform="translate(416,288)"/>
<path d="M0 0 C0.99 0 1.98 0 3 0 C3.67154933 1.28913487 4.33708859 2.58140204 5 3.875 C5.37125 4.59429687 5.7425 5.31359375 6.125 6.0546875 C7 8 7 8 7 10 C7.66 10.33 8.32 10.66 9 11 C8.01 11 7.02 11 6 11 C4.39453125 9.1015625 4.39453125 9.1015625 2.8125 6.625 C2.01779297 5.40683594 2.01779297 5.40683594 1.20703125 4.1640625 C0 2 0 2 0 0 Z " fill="#D05F62" transform="translate(155,237)"/>
<path d="M0 0 C3.25524265 3.02272532 5.61820737 6.25718301 8 10 C7.67 10.66 7.34 11.32 7 12 C4.35247996 9.42215154 2.05567935 7.08351902 0 4 C0 2.68 0 1.36 0 0 Z " fill="#CE6361" transform="translate(64,74)"/>
<path d="M0 0 C1.9375 0.75 1.9375 0.75 4 2 C4.75 4.125 4.75 4.125 5 6 C3.68 6.33 2.36 6.66 1 7 C-1 4 -1 4 -0.625 1.8125 C-0.41875 1.214375 -0.2125 0.61625 0 0 Z " fill="#C62C2A" transform="translate(186,257)"/>
<path d="M0 0 C4.59306496 1.4859916 7.43569245 3.85014682 11 7 C9.68 7.33 8.36 7.66 7 8 C6.67 7.01 6.34 6.02 6 5 C5.360625 4.855625 4.72125 4.71125 4.0625 4.5625 C2 4 2 4 0.75 1.9375 C0.5025 1.298125 0.255 0.65875 0 0 Z " fill="#CC5756" transform="translate(426,26)"/>
<path d="M0 0 C4.04648443 1.34882814 4.95502599 3.34826069 7 7 C6.67 7.99 6.34 8.98 6 10 C5.34 10 4.68 10 4 10 C4 8.35 4 6.7 4 5 C2.68 4.67 1.36 4.34 0 4 C0 2.68 0 1.36 0 0 Z " fill="#C73F41" transform="translate(25,18)"/>
<path d="M0 0 C-2.91850212 1.94566808 -4.57622848 2.5152457 -7.9375 3.1875 C-8.79214844 3.36667969 -9.64679688 3.54585937 -10.52734375 3.73046875 C-13.01134859 4.00123705 -14.64449502 3.77059444 -17 3 C-14.92085336 2.29994051 -12.83648414 1.61537756 -10.75 0.9375 C-9.58984375 0.55464844 -8.4296875 0.17179688 -7.234375 -0.22265625 C-4.19922915 -0.95211763 -2.84296787 -1.11889082 0 0 Z " fill="#D36D6F" transform="translate(344,13)"/>
<path d="M0 0 C2.60608273 2.5162178 4.89381685 5.05134359 7 8 C6.67 8.66 6.34 9.32 6 10 C3 8.375 3 8.375 0 6 C-0.375 2.75 -0.375 2.75 0 0 Z " fill="#CC4C4F" transform="translate(150,202)"/>
<path d="M0 0 C1 2 1 2 0.375 4.875 C-1.18787818 8.42699587 -2.83496039 9.83444658 -6 12 C-4.81819916 6.97734643 -3.55007718 3.9050849 0 0 Z " fill="#C93A3B" transform="translate(293,38)"/>
<path d="M0 0 C6.47556391 0.61090226 6.47556391 0.61090226 8.9375 2.4375 C10 4 10 4 10 6 C5.56909529 4.79157144 3.01887244 3.48331435 0 0 Z " fill="#CE595A" transform="translate(309,284)"/>
<path d="M0 0 C2.46800047 1.15173355 4.04783565 2.04783565 6 4 C6.40047444 6.32275177 6.7397104 8.65739357 7 11 C4.0444623 8.24829249 1.88436685 5.58029701 0 2 C0 1.34 0 0.68 0 0 Z " fill="#D15C59" transform="translate(277,249)"/>
<path d="M0 0 C3.33717549 1.3809002 5.22301036 2.8201238 7 6 C6.57421875 8.1328125 6.57421875 8.1328125 6 10 C4.99421411 8.71283353 3.99553202 7.42011342 3 6.125 C2.443125 5.40570313 1.88625 4.68640625 1.3125 3.9453125 C0 2 0 2 0 0 Z " fill="#CB5658" transform="translate(433,54)"/>
<path d="M0 0 C1.90389849 2.85584773 2.69462177 4.9311762 3.625 8.1875 C4.01558594 9.53908203 4.01558594 9.53908203 4.4140625 10.91796875 C4.60742188 11.60503906 4.80078125 12.29210937 5 13 C3.046875 11.82421875 3.046875 11.82421875 1 10 C0.390625 7.51953125 0.390625 7.51953125 0.25 4.8125 C0.19328125 3.91144531 0.1365625 3.01039063 0.078125 2.08203125 C0.05234375 1.39496094 0.0265625 0.70789063 0 0 Z " fill="#CF5C5F" transform="translate(284,222)"/>
<path d="M0 0 C0.99 0 1.98 0 3 0 C3.66 0.66 4.32 1.32 5 2 C4.625 5.125 4.625 5.125 4 8 C1.44971017 6.72485508 1.06918289 5.59658703 0 3 C0 2.01 0 1.02 0 0 Z " fill="#C50504" transform="translate(67,101)"/>
<path d="M0 0 C3.33523252 1.38009621 5.18607951 2.84950652 7 6 C6.67 6.99 6.34 7.98 6 9 C2.91910327 6.22719294 1.31224548 3.93673644 0 0 Z " fill="#CB5450" transform="translate(52,84)"/>
<path d="M0 0 C2.99324263 1.0975223 3.84610901 1.67682892 5.25 4.625 C5.4975 5.40875 5.745 6.1925 6 7 C3.03 6.505 3.03 6.505 0 6 C0 4.02 0 2.04 0 0 Z " fill="#C93639" transform="translate(45,48)"/>
<path d="M0 0 C0.66 0.66 1.32 1.32 2 2 C-1.9813783 3.3271261 -5.85045227 3.06915913 -10 3 C-6.70335635 -0.04305568 -4.44038228 -0.48265025 0 0 Z " fill="#C73B39" transform="translate(346,27)"/>
<path d="M0 0 C3.26460973 1.80412643 4.88929795 2.83394693 7 6 C6.67 6.99 6.34 7.98 6 9 C4.99406757 7.8803014 3.9954151 6.7540588 3 5.625 C2.443125 4.99851562 1.88625 4.37203125 1.3125 3.7265625 C0 2 0 2 0 0 Z " fill="#D06665" transform="translate(284,260)"/>
<path d="M0 0 C0.66 0.33 1.32 0.66 2 1 C1.01 4.3 0.02 7.6 -1 11 C-1.33 11 -1.66 11 -2 11 C-1.85957123 9.35369672 -1.71250671 7.70795821 -1.5625 6.0625 C-1.48128906 5.14597656 -1.40007812 4.22945312 -1.31640625 3.28515625 C-1 1 -1 1 0 0 Z " fill="#CE5B5B" transform="translate(464,231)"/>
<path d="M0 0 C0.99 0 1.98 0 3 0 C3.28875 0.78375 3.5775 1.5675 3.875 2.375 C4.84912254 5.09671632 4.84912254 5.09671632 7 7 C6.34 7.66 5.68 8.32 5 9 C4.16094435 7.87926138 3.32892169 6.75325453 2.5 5.625 C2.0359375 4.99851562 1.571875 4.37203125 1.09375 3.7265625 C0 2 0 2 0 0 Z " fill="#D0635F" transform="translate(58,93)"/>
<path d="M0 0 C0.66 0 1.32 0 2 0 C5 5.75 5 5.75 5 8 C4.34 8 3.68 8 3 8 C3 7.34 3 6.68 3 6 C2.01 5.67 1.02 5.34 0 5 C0 3.35 0 1.7 0 0 Z " fill="#C74548" transform="translate(458,62)"/>
<path d="M0 0 C-2.48952921 2.66735273 -4.63408134 4.55746343 -8 6 C-8.33 4.68 -8.66 3.36 -9 2 C-5.86501708 0.14223235 -3.62528568 -0.20140476 0 0 Z " fill="#D24F51" transform="translate(320,39)"/>
<path d="M0 0 C2.64 0 5.28 0 8 0 C3.25 4 3.25 4 1 4 C0.67 2.68 0.34 1.36 0 0 Z " fill="#C84343" transform="translate(419,284)"/>
<path d="M0 0 C1.98 0 3.96 0 6 0 C6 0.66 6 1.32 6 2 C6.66 2.33 7.32 2.66 8 3 C5.03 3 2.06 3 -1 3 C-0.67 2.01 -0.34 1.02 0 0 Z " fill="#C90603" transform="translate(342,283)"/>
<path d="M0 0 C2.64 0.33 5.28 0.66 8 1 C7.67 2.32 7.34 3.64 7 5 C3.34683329 3.75023244 2.21934164 3.32901247 0 0 Z " fill="#CA3E40" transform="translate(302,279)"/>
<path d="M0 0 C3.29148243 1.13499394 3.9959869 1.99283376 5.75 5.125 C6.1625 6.07375 6.575 7.0225 7 8 C6.01 8 5.02 8 4 8 C0 2.74285714 0 2.74285714 0 0 Z " fill="#CE5855" transform="translate(143,219)"/>
<path d="M0 0 C2.99324263 1.0975223 3.84610901 1.67682892 5.25 4.625 C5.4975 5.40875 5.745 6.1925 6 7 C4.02 6.01 2.04 5.02 0 4 C0 2.68 0 1.36 0 0 Z " fill="#C83F40" transform="translate(76,94)"/>
<path d="M0 0 C2.49415272 0.99766109 3.78740335 1.68616685 5.3125 3.9375 C6 6 6 6 5 9 C4.16094435 7.87926138 3.32892169 6.75325453 2.5 5.625 C2.0359375 4.99851562 1.571875 4.37203125 1.09375 3.7265625 C0 2 0 2 0 0 Z " fill="#D05759" transform="translate(46,75)"/>
<path d="M0 0 C1 2 1 2 0.375 4.5625 C-1 7 -1 7 -3.625 7.8125 C-4.40875 7.874375 -5.1925 7.93625 -6 8 C-4.02 5.36 -2.04 2.72 0 0 Z " fill="#CD5658" transform="translate(436,251)"/>
<path d="M0 0 C0.66 0 1.32 0 2 0 C2 1.32 2 2.64 2 4 C2.99 4.33 3.98 4.66 5 5 C1.125 7 1.125 7 0 7 C0 4.69 0 2.38 0 0 Z " fill="#C10905" transform="translate(180,249)"/>
<path d="M0 0 C0.9681648 3.8726592 1.07622858 7.03611362 1 11 C0.01 10.67 -0.98 10.34 -2 10 C-1.34 6.7 -0.68 3.4 0 0 Z " fill="#CC4447" transform="translate(451,216)"/>
<path d="M0 0 C3.08089673 2.77280706 4.68775452 5.06326356 6 9 C5.01 8.67 4.02 8.34 3 8 C3 7.01 3 6.02 3 5 C2.01 4.67 1.02 4.34 0 4 C0 2.68 0 1.36 0 0 Z " fill="#CB5353" transform="translate(86,107)"/>
<path d="M0 0 C2.875 0.1875 2.875 0.1875 6 1 C7.375 3.5625 7.375 3.5625 8 6 C4.63408134 4.55746343 2.48952921 2.66735273 0 0 Z " fill="#D15C5D" transform="translate(415,38)"/>
<path d="M0 0 C0.33 1.32 0.66 2.64 1 4 C-3.625 7 -3.625 7 -7 7 C-4.69 4.69 -2.38 2.38 0 0 Z " fill="#D87A7C" transform="translate(429,259)"/>
<path d="M0 0 C2.12508244 3.18762365 2.5020163 5.26512223 3 9 C2.01 9 1.02 9 0 9 C0 6.03 0 3.06 0 0 Z M-2 9 C-1.01 9.495 -1.01 9.495 0 10 C-0.99 10.495 -0.99 10.495 -2 11 C-2 10.34 -2 9.68 -2 9 Z " fill="#BC0909" transform="translate(282,219)"/>
<path d="M0 0 C0.66 0.33 1.32 0.66 2 1 C-0.31 3.31 -2.62 5.62 -5 8 C-5 5 -5 5 -2.5 2.3125 C-1.675 1.549375 -0.85 0.78625 0 0 Z " fill="#757575" transform="translate(247,141)"/>
<path d="M0 0 C1.98 1.65 3.96 3.3 6 5 C5.67 5.66 5.34 6.32 5 7 C3.68 6.67 2.36 6.34 1 6 C0.67 4.02 0.34 2.04 0 0 Z " fill="#D04E51" transform="translate(443,40)"/>
<path d="M0 0 C0 3 0 3 -2 5.1875 C-2.66 5.785625 -3.32 6.38375 -4 7 C-3.67 5.02 -3.34 3.04 -3 1 C-2.01 0.67 -1.02 0.34 0 0 Z " fill="#D05B5D" transform="translate(454,255)"/>
<path d="M0 0 C0.33 0.66 0.66 1.32 1 2 C0.06421005 4.35981813 -0.93347808 6.69631264 -2 9 C-2.33 9 -2.66 9 -3 9 C-3.36923077 3.46153846 -3.36923077 3.46153846 -1.5 1.125 C-1.005 0.75375 -0.51 0.3825 0 0 Z " fill="#D36063" transform="translate(290,72)"/>
<path d="M0 0 C-2.97 2.475 -2.97 2.475 -6 5 C-6 3.35 -6 1.7 -6 0 C-3.50907189 -1.24546405 -2.58919267 -0.7767578 0 0 Z " fill="#CE5B5C" transform="translate(312,46)"/>
<path d="M0 0 C2.97 0.495 2.97 0.495 6 1 C6 2.65 6 4.3 6 6 C3.97945196 4.35830472 1.97956942 2.69088222 0 1 C0 0.67 0 0.34 0 0 Z " fill="#CD585B" transform="translate(423,44)"/>
</svg>
