<svg version="1.1" id="Layer_1" xmlns="http://www.w3.org/2000/svg" xmlns:xlink="http://www.w3.org/1999/xlink" x="0px" y="0px"
	 width="100%" viewBox="0 0 217 80" enable-background="new 0 0 217 80" xml:space="preserve">
<path fill="#FEFEFF" opacity="1.000000" stroke="none" 
	d="
M154.000000,81.000000 
	C102.666679,81.000000 51.833363,81.000000 1.000034,81.000000 
	C1.000023,54.333355 1.000023,27.666714 1.000011,1.000052 
	C73.333290,1.000035 145.666580,1.000035 217.999908,1.000017 
	C217.999939,27.666613 217.999939,54.333225 217.999969,80.999924 
	C196.833328,81.000000 175.666672,81.000000 154.000000,81.000000 
M122.878059,62.038033 
	C122.878059,62.038033 123.016907,61.994701 123.215660,62.701637 
	C120.596848,67.409485 117.978043,72.117340 115.359230,76.825188 
	C115.779655,77.091629 116.200081,77.358063 116.620506,77.624504 
	C123.258537,68.495972 132.319901,64.265671 143.360474,65.158310 
	C149.438156,65.649689 155.395706,67.484573 161.449142,68.452812 
	C169.773346,69.784241 178.118607,71.628975 186.489395,71.832550 
	C193.999969,72.015205 200.825104,68.862389 205.041168,63.572880 
	C196.967255,62.734001 188.579590,62.406548 180.429138,60.842709 
	C173.965500,59.602528 167.807373,56.801308 161.487457,54.774712 
	C147.852936,50.402557 134.948608,50.015091 124.321274,61.764439 
	C124.083061,62.027802 123.448845,61.932987 122.878059,62.038033 
M105.361336,60.412762 
	C97.064354,53.176346 87.682426,50.003128 76.749413,52.924179 
	C70.653854,54.552780 64.398857,55.828449 58.566750,58.146389 
	C47.803574,62.424156 36.982113,64.764915 25.463194,62.123325 
	C25.300270,62.085968 25.045364,62.449699 24.833960,62.625759 
	C31.047161,70.400711 42.428745,73.900246 54.822601,71.538734 
	C62.654751,70.046402 70.421417,68.198746 78.194626,66.411240 
	C92.200851,63.190403 104.587448,65.118683 114.306610,77.223503 
	C113.088303,73.255051 111.386330,69.597382 109.540352,66.013901 
	C108.468895,63.933968 107.166061,61.973225 106.614174,59.939735 
	C106.747696,60.039047 106.869644,60.164543 107.018066,60.230125 
	C107.159561,60.292645 107.328667,60.292690 107.485634,60.320198 
	C107.329742,58.977741 107.442444,57.532883 106.975792,56.308907 
	C102.961227,45.779072 92.869194,40.388859 79.862289,41.394699 
	C68.406960,42.280560 57.017555,46.567657 45.332882,42.060112 
	C49.856525,48.481361 56.442871,50.460136 63.507332,50.642300 
	C71.140076,50.839111 78.812798,49.814415 86.431007,50.154079 
	C94.216370,50.501202 102.023750,51.725994 105.361336,60.412762 
M104.995651,35.750202 
	C104.471054,45.553436 108.890732,53.254234 115.063263,60.373661 
	C128.732346,46.617561 129.420990,28.263521 114.756783,15.037603 
	C109.853294,20.855209 106.072334,27.175175 104.995651,35.750202 
M140.653488,41.975594 
	C130.661285,44.388100 123.496841,51.640167 123.300102,60.118160 
	C130.240891,51.028164 139.653397,49.540932 149.817673,50.063301 
	C155.617966,50.361389 161.437424,50.857487 167.226669,50.652954 
	C174.312653,50.402603 180.806961,48.305950 185.254639,42.890228 
	C177.609726,42.890228 169.938110,43.017685 162.272797,42.852478 
	C155.342606,42.703114 148.419281,42.234047 140.653488,41.975594 
z"/>
<path fill="#5775FF" opacity="1.000000" stroke="none" 
	d="
M105.967346,59.958847 
	C107.166061,61.973225 108.468895,63.933968 109.540352,66.013901 
	C111.386330,69.597382 113.088303,73.255051 114.306610,77.223503 
	C104.587448,65.118683 92.200851,63.190403 78.194626,66.411240 
	C70.421417,68.198746 62.654751,70.046402 54.822601,71.538734 
	C42.428745,73.900246 31.047161,70.400711 24.833960,62.625759 
	C25.045364,62.449699 25.300270,62.085968 25.463194,62.123325 
	C36.982113,64.764915 47.803574,62.424156 58.566750,58.146389 
	C64.398857,55.828449 70.653854,54.552780 76.749413,52.924179 
	C87.682426,50.003128 97.064354,53.176346 105.681061,60.197556 
	C106.000793,59.982349 105.967346,59.958847 105.967346,59.958847 
z"/>
<path fill="#5674FF" opacity="1.000000" stroke="none" 
	d="
M122.999352,62.005245 
	C123.448845,61.932987 124.083061,62.027802 124.321274,61.764439 
	C134.948608,50.015091 147.852936,50.402557 161.487457,54.774712 
	C167.807373,56.801308 173.965500,59.602528 180.429138,60.842709 
	C188.579590,62.406548 196.967255,62.734001 205.041168,63.572880 
	C200.825104,68.862389 193.999969,72.015205 186.489395,71.832550 
	C178.118607,71.628975 169.773346,69.784241 161.449142,68.452812 
	C155.395706,67.484573 149.438156,65.649689 143.360474,65.158310 
	C132.319901,64.265671 123.258537,68.495972 116.620506,77.624504 
	C116.200081,77.358063 115.779655,77.091629 115.359230,76.825188 
	C117.978043,72.117340 120.596848,67.409485 123.105331,62.345394 
	C122.994995,61.989151 122.999352,62.005245 122.999352,62.005245 
z"/>
<path fill="#5574FF" opacity="1.000000" stroke="none" 
	d="
M105.019760,35.311516 
	C106.072334,27.175175 109.853294,20.855209 114.756783,15.037603 
	C129.420990,28.263521 128.732346,46.617561 115.063263,60.373661 
	C108.890732,53.254234 104.471054,45.553436 105.019760,35.311516 
z"/>
<path fill="#5977FF" opacity="1.000000" stroke="none" 
	d="
M141.073212,41.940773 
	C148.419281,42.234047 155.342606,42.703114 162.272797,42.852478 
	C169.938110,43.017685 177.609726,42.890228 185.254639,42.890228 
	C180.806961,48.305950 174.312653,50.402603 167.226669,50.652954 
	C161.437424,50.857487 155.617966,50.361389 149.817673,50.063301 
	C139.653397,49.540932 130.240891,51.028164 123.300102,60.118160 
	C123.496841,51.640167 130.661285,44.388100 141.073212,41.940773 
z"/>
<path fill="#5977FF" opacity="1.000000" stroke="none" 
	d="
M106.011185,59.999741 
	C102.023750,51.725994 94.216370,50.501202 86.431007,50.154079 
	C78.812798,49.814415 71.140076,50.839111 63.507332,50.642300 
	C56.442871,50.460136 49.856525,48.481361 45.332882,42.060112 
	C57.017555,46.567657 68.406960,42.280560 79.862289,41.394699 
	C92.869194,40.388859 102.961227,45.779072 106.975792,56.308907 
	C107.442444,57.532883 107.329742,58.977741 107.485634,60.320198 
	C107.328667,60.292690 107.159561,60.292645 107.018066,60.230125 
	C106.869644,60.164543 106.747696,60.039047 106.290756,59.949291 
	C105.967346,59.958847 106.000793,59.982349 106.011185,59.999741 
z"/>
<path fill="#5977FF" opacity="1.000000" stroke="none" 
	d="
M123.005951,61.991928 
	C123.016907,61.994701 122.878059,62.038033 122.938705,62.021637 
	C122.999352,62.005245 122.994995,61.989151 123.005951,61.991928 
z"/>
</svg>